<?xml version="1.0" encoding="utf-8" standalone="no"?>
<!DOCTYPE svg PUBLIC "-//W3C//DTD SVG 1.1//EN"
  "http://www.w3.org/Graphics/SVG/1.1/DTD/svg11.dtd">
<!-- Created with matplotlib (https://matplotlib.org/) -->
<svg height="345.6pt" version="1.1" viewBox="0 0 460.8 345.6" width="460.8pt" xmlns="http://www.w3.org/2000/svg" xmlns:xlink="http://www.w3.org/1999/xlink">
 <defs>
  <style type="text/css">
*{stroke-linecap:butt;stroke-linejoin:round;}
  </style>
 </defs>
 <g id="figure_1">
  <g id="patch_1">
   <path d="M 0 345.6 
L 460.8 345.6 
L 460.8 0 
L 0 0 
z
" style="fill:#ffffff;"/>
  </g>
  <g id="axes_1">
   <g id="patch_2">
    <path d="M 0 345.6 
L 460.8 345.6 
L 460.8 0 
L 0 0 
z
" style="fill:#ffffff;"/>
   </g>
   <g id="matplotlib.axis_1">
    <g id="xtick_1">
     <g id="line2d_1">
      <path clip-path="url(#p0304c97526)" d="M 2.060078 345.6 
L 2.060078 0 
" style="fill:none;stroke:#b0b0b0;stroke-linecap:square;stroke-width:0.8;"/>
     </g>
     <g id="line2d_2">
      <defs>
       <path d="M 0 0 
L 0 3.5 
" id="m19041ce2ef" style="stroke:#000000;stroke-width:0.8;"/>
      </defs>
      <g>
       <use style="stroke:#000000;stroke-width:0.8;" x="2.060078" xlink:href="#m19041ce2ef" y="345.6"/>
      </g>
     </g>
     <g id="text_1">
      <!-- 0.0 -->
      <defs>
       <path d="M 31.78125 66.40625 
Q 24.171875 66.40625 20.328125 58.90625 
Q 16.5 51.421875 16.5 36.375 
Q 16.5 21.390625 20.328125 13.890625 
Q 24.171875 6.390625 31.78125 6.390625 
Q 39.453125 6.390625 43.28125 13.890625 
Q 47.125 21.390625 47.125 36.375 
Q 47.125 51.421875 43.28125 58.90625 
Q 39.453125 66.40625 31.78125 66.40625 
z
M 31.78125 74.21875 
Q 44.046875 74.21875 50.515625 64.515625 
Q 56.984375 54.828125 56.984375 36.375 
Q 56.984375 17.96875 50.515625 8.265625 
Q 44.046875 -1.421875 31.78125 -1.421875 
Q 19.53125 -1.421875 13.0625 8.265625 
Q 6.59375 17.96875 6.59375 36.375 
Q 6.59375 54.828125 13.0625 64.515625 
Q 19.53125 74.21875 31.78125 74.21875 
z
" id="DejaVuSans-48"/>
       <path d="M 10.6875 12.40625 
L 21 12.40625 
L 21 0 
L 10.6875 0 
z
" id="DejaVuSans-46"/>
      </defs>
      <g transform="translate(-5.891485 360.198437)scale(0.1 -0.1)">
       <use xlink:href="#DejaVuSans-48"/>
       <use x="63.623047" xlink:href="#DejaVuSans-46"/>
       <use x="95.410156" xlink:href="#DejaVuSans-48"/>
      </g>
     </g>
    </g>
    <g id="xtick_2">
     <g id="line2d_3">
      <path clip-path="url(#p0304c97526)" d="M 53.876113 345.6 
L 53.876113 0 
" style="fill:none;stroke:#b0b0b0;stroke-linecap:square;stroke-width:0.8;"/>
     </g>
     <g id="line2d_4">
      <g>
       <use style="stroke:#000000;stroke-width:0.8;" x="53.876113" xlink:href="#m19041ce2ef" y="345.6"/>
      </g>
     </g>
     <g id="text_2">
      <!-- 2.5 -->
      <defs>
       <path d="M 19.1875 8.296875 
L 53.609375 8.296875 
L 53.609375 0 
L 7.328125 0 
L 7.328125 8.296875 
Q 12.9375 14.109375 22.625 23.890625 
Q 32.328125 33.6875 34.8125 36.53125 
Q 39.546875 41.84375 41.421875 45.53125 
Q 43.3125 49.21875 43.3125 52.78125 
Q 43.3125 58.59375 39.234375 62.25 
Q 35.15625 65.921875 28.609375 65.921875 
Q 23.96875 65.921875 18.8125 64.3125 
Q 13.671875 62.703125 7.8125 59.421875 
L 7.8125 69.390625 
Q 13.765625 71.78125 18.9375 73 
Q 24.125 74.21875 28.421875 74.21875 
Q 39.75 74.21875 46.484375 68.546875 
Q 53.21875 62.890625 53.21875 53.421875 
Q 53.21875 48.921875 51.53125 44.890625 
Q 49.859375 40.875 45.40625 35.40625 
Q 44.1875 33.984375 37.640625 27.21875 
Q 31.109375 20.453125 19.1875 8.296875 
z
" id="DejaVuSans-50"/>
       <path d="M 10.796875 72.90625 
L 49.515625 72.90625 
L 49.515625 64.59375 
L 19.828125 64.59375 
L 19.828125 46.734375 
Q 21.96875 47.46875 24.109375 47.828125 
Q 26.265625 48.1875 28.421875 48.1875 
Q 40.625 48.1875 47.75 41.5 
Q 54.890625 34.8125 54.890625 23.390625 
Q 54.890625 11.625 47.5625 5.09375 
Q 40.234375 -1.421875 26.90625 -1.421875 
Q 22.3125 -1.421875 17.546875 -0.640625 
Q 12.796875 0.140625 7.71875 1.703125 
L 7.71875 11.625 
Q 12.109375 9.234375 16.796875 8.0625 
Q 21.484375 6.890625 26.703125 6.890625 
Q 35.15625 6.890625 40.078125 11.328125 
Q 45.015625 15.765625 45.015625 23.390625 
Q 45.015625 31 40.078125 35.4375 
Q 35.15625 39.890625 26.703125 39.890625 
Q 22.75 39.890625 18.8125 39.015625 
Q 14.890625 38.140625 10.796875 36.28125 
z
" id="DejaVuSans-53"/>
      </defs>
      <g transform="translate(45.924551 360.198437)scale(0.1 -0.1)">
       <use xlink:href="#DejaVuSans-50"/>
       <use x="63.623047" xlink:href="#DejaVuSans-46"/>
       <use x="95.410156" xlink:href="#DejaVuSans-53"/>
      </g>
     </g>
    </g>
    <g id="xtick_3">
     <g id="line2d_5">
      <path clip-path="url(#p0304c97526)" d="M 105.692149 345.6 
L 105.692149 0 
" style="fill:none;stroke:#b0b0b0;stroke-linecap:square;stroke-width:0.8;"/>
     </g>
     <g id="line2d_6">
      <g>
       <use style="stroke:#000000;stroke-width:0.8;" x="105.692149" xlink:href="#m19041ce2ef" y="345.6"/>
      </g>
     </g>
     <g id="text_3">
      <!-- 5.0 -->
      <g transform="translate(97.740586 360.198437)scale(0.1 -0.1)">
       <use xlink:href="#DejaVuSans-53"/>
       <use x="63.623047" xlink:href="#DejaVuSans-46"/>
       <use x="95.410156" xlink:href="#DejaVuSans-48"/>
      </g>
     </g>
    </g>
    <g id="xtick_4">
     <g id="line2d_7">
      <path clip-path="url(#p0304c97526)" d="M 157.508184 345.6 
L 157.508184 0 
" style="fill:none;stroke:#b0b0b0;stroke-linecap:square;stroke-width:0.8;"/>
     </g>
     <g id="line2d_8">
      <g>
       <use style="stroke:#000000;stroke-width:0.8;" x="157.508184" xlink:href="#m19041ce2ef" y="345.6"/>
      </g>
     </g>
     <g id="text_4">
      <!-- 7.5 -->
      <defs>
       <path d="M 8.203125 72.90625 
L 55.078125 72.90625 
L 55.078125 68.703125 
L 28.609375 0 
L 18.3125 0 
L 43.21875 64.59375 
L 8.203125 64.59375 
z
" id="DejaVuSans-55"/>
      </defs>
      <g transform="translate(149.556622 360.198437)scale(0.1 -0.1)">
       <use xlink:href="#DejaVuSans-55"/>
       <use x="63.623047" xlink:href="#DejaVuSans-46"/>
       <use x="95.410156" xlink:href="#DejaVuSans-53"/>
      </g>
     </g>
    </g>
    <g id="xtick_5">
     <g id="line2d_9">
      <path clip-path="url(#p0304c97526)" d="M 209.32422 345.6 
L 209.32422 0 
" style="fill:none;stroke:#b0b0b0;stroke-linecap:square;stroke-width:0.8;"/>
     </g>
     <g id="line2d_10">
      <g>
       <use style="stroke:#000000;stroke-width:0.8;" x="209.32422" xlink:href="#m19041ce2ef" y="345.6"/>
      </g>
     </g>
     <g id="text_5">
      <!-- 10.0 -->
      <defs>
       <path d="M 12.40625 8.296875 
L 28.515625 8.296875 
L 28.515625 63.921875 
L 10.984375 60.40625 
L 10.984375 69.390625 
L 28.421875 72.90625 
L 38.28125 72.90625 
L 38.28125 8.296875 
L 54.390625 8.296875 
L 54.390625 0 
L 12.40625 0 
z
" id="DejaVuSans-49"/>
      </defs>
      <g transform="translate(198.191407 360.198437)scale(0.1 -0.1)">
       <use xlink:href="#DejaVuSans-49"/>
       <use x="63.623047" xlink:href="#DejaVuSans-48"/>
       <use x="127.246094" xlink:href="#DejaVuSans-46"/>
       <use x="159.033203" xlink:href="#DejaVuSans-48"/>
      </g>
     </g>
    </g>
    <g id="xtick_6">
     <g id="line2d_11">
      <path clip-path="url(#p0304c97526)" d="M 261.140255 345.6 
L 261.140255 0 
" style="fill:none;stroke:#b0b0b0;stroke-linecap:square;stroke-width:0.8;"/>
     </g>
     <g id="line2d_12">
      <g>
       <use style="stroke:#000000;stroke-width:0.8;" x="261.140255" xlink:href="#m19041ce2ef" y="345.6"/>
      </g>
     </g>
     <g id="text_6">
      <!-- 12.5 -->
      <g transform="translate(250.007443 360.198437)scale(0.1 -0.1)">
       <use xlink:href="#DejaVuSans-49"/>
       <use x="63.623047" xlink:href="#DejaVuSans-50"/>
       <use x="127.246094" xlink:href="#DejaVuSans-46"/>
       <use x="159.033203" xlink:href="#DejaVuSans-53"/>
      </g>
     </g>
    </g>
    <g id="xtick_7">
     <g id="line2d_13">
      <path clip-path="url(#p0304c97526)" d="M 312.956291 345.6 
L 312.956291 0 
" style="fill:none;stroke:#b0b0b0;stroke-linecap:square;stroke-width:0.8;"/>
     </g>
     <g id="line2d_14">
      <g>
       <use style="stroke:#000000;stroke-width:0.8;" x="312.956291" xlink:href="#m19041ce2ef" y="345.6"/>
      </g>
     </g>
     <g id="text_7">
      <!-- 15.0 -->
      <g transform="translate(301.823478 360.198437)scale(0.1 -0.1)">
       <use xlink:href="#DejaVuSans-49"/>
       <use x="63.623047" xlink:href="#DejaVuSans-53"/>
       <use x="127.246094" xlink:href="#DejaVuSans-46"/>
       <use x="159.033203" xlink:href="#DejaVuSans-48"/>
      </g>
     </g>
    </g>
    <g id="xtick_8">
     <g id="line2d_15">
      <path clip-path="url(#p0304c97526)" d="M 364.772326 345.6 
L 364.772326 0 
" style="fill:none;stroke:#b0b0b0;stroke-linecap:square;stroke-width:0.8;"/>
     </g>
     <g id="line2d_16">
      <g>
       <use style="stroke:#000000;stroke-width:0.8;" x="364.772326" xlink:href="#m19041ce2ef" y="345.6"/>
      </g>
     </g>
     <g id="text_8">
      <!-- 17.5 -->
      <g transform="translate(353.639514 360.198437)scale(0.1 -0.1)">
       <use xlink:href="#DejaVuSans-49"/>
       <use x="63.623047" xlink:href="#DejaVuSans-55"/>
       <use x="127.246094" xlink:href="#DejaVuSans-46"/>
       <use x="159.033203" xlink:href="#DejaVuSans-53"/>
      </g>
     </g>
    </g>
    <g id="xtick_9">
     <g id="line2d_17">
      <path clip-path="url(#p0304c97526)" d="M 416.588362 345.6 
L 416.588362 0 
" style="fill:none;stroke:#b0b0b0;stroke-linecap:square;stroke-width:0.8;"/>
     </g>
     <g id="line2d_18">
      <g>
       <use style="stroke:#000000;stroke-width:0.8;" x="416.588362" xlink:href="#m19041ce2ef" y="345.6"/>
      </g>
     </g>
     <g id="text_9">
      <!-- 20.0 -->
      <g transform="translate(405.455549 360.198437)scale(0.1 -0.1)">
       <use xlink:href="#DejaVuSans-50"/>
       <use x="63.623047" xlink:href="#DejaVuSans-48"/>
       <use x="127.246094" xlink:href="#DejaVuSans-46"/>
       <use x="159.033203" xlink:href="#DejaVuSans-48"/>
      </g>
     </g>
    </g>
    <g id="text_10">
     <!-- x[m] -->
     <defs>
      <path d="M 54.890625 54.6875 
L 35.109375 28.078125 
L 55.90625 0 
L 45.3125 0 
L 29.390625 21.484375 
L 13.484375 0 
L 2.875 0 
L 24.125 28.609375 
L 4.6875 54.6875 
L 15.28125 54.6875 
L 29.78125 35.203125 
L 44.28125 54.6875 
z
" id="DejaVuSans-120"/>
      <path d="M 8.59375 75.984375 
L 29.296875 75.984375 
L 29.296875 69 
L 17.578125 69 
L 17.578125 -6.203125 
L 29.296875 -6.203125 
L 29.296875 -13.1875 
L 8.59375 -13.1875 
z
" id="DejaVuSans-91"/>
      <path d="M 52 44.1875 
Q 55.375 50.25 60.0625 53.125 
Q 64.75 56 71.09375 56 
Q 79.640625 56 84.28125 50.015625 
Q 88.921875 44.046875 88.921875 33.015625 
L 88.921875 0 
L 79.890625 0 
L 79.890625 32.71875 
Q 79.890625 40.578125 77.09375 44.375 
Q 74.3125 48.1875 68.609375 48.1875 
Q 61.625 48.1875 57.5625 43.546875 
Q 53.515625 38.921875 53.515625 30.90625 
L 53.515625 0 
L 44.484375 0 
L 44.484375 32.71875 
Q 44.484375 40.625 41.703125 44.40625 
Q 38.921875 48.1875 33.109375 48.1875 
Q 26.21875 48.1875 22.15625 43.53125 
Q 18.109375 38.875 18.109375 30.90625 
L 18.109375 0 
L 9.078125 0 
L 9.078125 54.6875 
L 18.109375 54.6875 
L 18.109375 46.1875 
Q 21.1875 51.21875 25.484375 53.609375 
Q 29.78125 56 35.6875 56 
Q 41.65625 56 45.828125 52.96875 
Q 50 49.953125 52 44.1875 
z
" id="DejaVuSans-109"/>
      <path d="M 30.421875 75.984375 
L 30.421875 -13.1875 
L 9.71875 -13.1875 
L 9.71875 -6.203125 
L 21.390625 -6.203125 
L 21.390625 69 
L 9.71875 69 
L 9.71875 75.984375 
z
" id="DejaVuSans-93"/>
     </defs>
     <g transform="translate(218.66875 373.876562)scale(0.1 -0.1)">
      <use xlink:href="#DejaVuSans-120"/>
      <use x="59.179688" xlink:href="#DejaVuSans-91"/>
      <use x="98.193359" xlink:href="#DejaVuSans-109"/>
      <use x="195.605469" xlink:href="#DejaVuSans-93"/>
     </g>
    </g>
   </g>
   <g id="matplotlib.axis_2">
    <g id="ytick_1">
     <g id="line2d_19">
      <path clip-path="url(#p0304c97526)" d="M 0 340.852562 
L 460.8 340.852562 
" style="fill:none;stroke:#b0b0b0;stroke-linecap:square;stroke-width:0.8;"/>
     </g>
     <g id="line2d_20">
      <defs>
       <path d="M 0 0 
L -3.5 0 
" id="m10e594a70b" style="stroke:#000000;stroke-width:0.8;"/>
      </defs>
      <g>
       <use style="stroke:#000000;stroke-width:0.8;" x="0" xlink:href="#m10e594a70b" y="340.852562"/>
      </g>
     </g>
     <g id="text_11">
      <!-- −2 -->
      <defs>
       <path d="M 10.59375 35.5 
L 73.1875 35.5 
L 73.1875 27.203125 
L 10.59375 27.203125 
z
" id="DejaVuSans-8722"/>
      </defs>
      <g transform="translate(-21.742188 344.65178)scale(0.1 -0.1)">
       <use xlink:href="#DejaVuSans-8722"/>
       <use x="83.789062" xlink:href="#DejaVuSans-50"/>
      </g>
     </g>
    </g>
    <g id="ytick_2">
     <g id="line2d_21">
      <path clip-path="url(#p0304c97526)" d="M 0 299.399733 
L 460.8 299.399733 
" style="fill:none;stroke:#b0b0b0;stroke-linecap:square;stroke-width:0.8;"/>
     </g>
     <g id="line2d_22">
      <g>
       <use style="stroke:#000000;stroke-width:0.8;" x="0" xlink:href="#m10e594a70b" y="299.399733"/>
      </g>
     </g>
     <g id="text_12">
      <!-- 0 -->
      <g transform="translate(-13.3625 303.198952)scale(0.1 -0.1)">
       <use xlink:href="#DejaVuSans-48"/>
      </g>
     </g>
    </g>
    <g id="ytick_3">
     <g id="line2d_23">
      <path clip-path="url(#p0304c97526)" d="M 0 257.946905 
L 460.8 257.946905 
" style="fill:none;stroke:#b0b0b0;stroke-linecap:square;stroke-width:0.8;"/>
     </g>
     <g id="line2d_24">
      <g>
       <use style="stroke:#000000;stroke-width:0.8;" x="0" xlink:href="#m10e594a70b" y="257.946905"/>
      </g>
     </g>
     <g id="text_13">
      <!-- 2 -->
      <g transform="translate(-13.3625 261.746123)scale(0.1 -0.1)">
       <use xlink:href="#DejaVuSans-50"/>
      </g>
     </g>
    </g>
    <g id="ytick_4">
     <g id="line2d_25">
      <path clip-path="url(#p0304c97526)" d="M 0 216.494076 
L 460.8 216.494076 
" style="fill:none;stroke:#b0b0b0;stroke-linecap:square;stroke-width:0.8;"/>
     </g>
     <g id="line2d_26">
      <g>
       <use style="stroke:#000000;stroke-width:0.8;" x="0" xlink:href="#m10e594a70b" y="216.494076"/>
      </g>
     </g>
     <g id="text_14">
      <!-- 4 -->
      <defs>
       <path d="M 37.796875 64.3125 
L 12.890625 25.390625 
L 37.796875 25.390625 
z
M 35.203125 72.90625 
L 47.609375 72.90625 
L 47.609375 25.390625 
L 58.015625 25.390625 
L 58.015625 17.1875 
L 47.609375 17.1875 
L 47.609375 0 
L 37.796875 0 
L 37.796875 17.1875 
L 4.890625 17.1875 
L 4.890625 26.703125 
z
" id="DejaVuSans-52"/>
      </defs>
      <g transform="translate(-13.3625 220.293295)scale(0.1 -0.1)">
       <use xlink:href="#DejaVuSans-52"/>
      </g>
     </g>
    </g>
    <g id="ytick_5">
     <g id="line2d_27">
      <path clip-path="url(#p0304c97526)" d="M 0 175.041248 
L 460.8 175.041248 
" style="fill:none;stroke:#b0b0b0;stroke-linecap:square;stroke-width:0.8;"/>
     </g>
     <g id="line2d_28">
      <g>
       <use style="stroke:#000000;stroke-width:0.8;" x="0" xlink:href="#m10e594a70b" y="175.041248"/>
      </g>
     </g>
     <g id="text_15">
      <!-- 6 -->
      <defs>
       <path d="M 33.015625 40.375 
Q 26.375 40.375 22.484375 35.828125 
Q 18.609375 31.296875 18.609375 23.390625 
Q 18.609375 15.53125 22.484375 10.953125 
Q 26.375 6.390625 33.015625 6.390625 
Q 39.65625 6.390625 43.53125 10.953125 
Q 47.40625 15.53125 47.40625 23.390625 
Q 47.40625 31.296875 43.53125 35.828125 
Q 39.65625 40.375 33.015625 40.375 
z
M 52.59375 71.296875 
L 52.59375 62.3125 
Q 48.875 64.0625 45.09375 64.984375 
Q 41.3125 65.921875 37.59375 65.921875 
Q 27.828125 65.921875 22.671875 59.328125 
Q 17.53125 52.734375 16.796875 39.40625 
Q 19.671875 43.65625 24.015625 45.921875 
Q 28.375 48.1875 33.59375 48.1875 
Q 44.578125 48.1875 50.953125 41.515625 
Q 57.328125 34.859375 57.328125 23.390625 
Q 57.328125 12.15625 50.6875 5.359375 
Q 44.046875 -1.421875 33.015625 -1.421875 
Q 20.359375 -1.421875 13.671875 8.265625 
Q 6.984375 17.96875 6.984375 36.375 
Q 6.984375 53.65625 15.1875 63.9375 
Q 23.390625 74.21875 37.203125 74.21875 
Q 40.921875 74.21875 44.703125 73.484375 
Q 48.484375 72.75 52.59375 71.296875 
z
" id="DejaVuSans-54"/>
      </defs>
      <g transform="translate(-13.3625 178.840467)scale(0.1 -0.1)">
       <use xlink:href="#DejaVuSans-54"/>
      </g>
     </g>
    </g>
    <g id="ytick_6">
     <g id="line2d_29">
      <path clip-path="url(#p0304c97526)" d="M 0 133.58842 
L 460.8 133.58842 
" style="fill:none;stroke:#b0b0b0;stroke-linecap:square;stroke-width:0.8;"/>
     </g>
     <g id="line2d_30">
      <g>
       <use style="stroke:#000000;stroke-width:0.8;" x="0" xlink:href="#m10e594a70b" y="133.58842"/>
      </g>
     </g>
     <g id="text_16">
      <!-- 8 -->
      <defs>
       <path d="M 31.78125 34.625 
Q 24.75 34.625 20.71875 30.859375 
Q 16.703125 27.09375 16.703125 20.515625 
Q 16.703125 13.921875 20.71875 10.15625 
Q 24.75 6.390625 31.78125 6.390625 
Q 38.8125 6.390625 42.859375 10.171875 
Q 46.921875 13.96875 46.921875 20.515625 
Q 46.921875 27.09375 42.890625 30.859375 
Q 38.875 34.625 31.78125 34.625 
z
M 21.921875 38.8125 
Q 15.578125 40.375 12.03125 44.71875 
Q 8.5 49.078125 8.5 55.328125 
Q 8.5 64.0625 14.71875 69.140625 
Q 20.953125 74.21875 31.78125 74.21875 
Q 42.671875 74.21875 48.875 69.140625 
Q 55.078125 64.0625 55.078125 55.328125 
Q 55.078125 49.078125 51.53125 44.71875 
Q 48 40.375 41.703125 38.8125 
Q 48.828125 37.15625 52.796875 32.3125 
Q 56.78125 27.484375 56.78125 20.515625 
Q 56.78125 9.90625 50.3125 4.234375 
Q 43.84375 -1.421875 31.78125 -1.421875 
Q 19.734375 -1.421875 13.25 4.234375 
Q 6.78125 9.90625 6.78125 20.515625 
Q 6.78125 27.484375 10.78125 32.3125 
Q 14.796875 37.15625 21.921875 38.8125 
z
M 18.3125 54.390625 
Q 18.3125 48.734375 21.84375 45.5625 
Q 25.390625 42.390625 31.78125 42.390625 
Q 38.140625 42.390625 41.71875 45.5625 
Q 45.3125 48.734375 45.3125 54.390625 
Q 45.3125 60.0625 41.71875 63.234375 
Q 38.140625 66.40625 31.78125 66.40625 
Q 25.390625 66.40625 21.84375 63.234375 
Q 18.3125 60.0625 18.3125 54.390625 
z
" id="DejaVuSans-56"/>
      </defs>
      <g transform="translate(-13.3625 137.387638)scale(0.1 -0.1)">
       <use xlink:href="#DejaVuSans-56"/>
      </g>
     </g>
    </g>
    <g id="ytick_7">
     <g id="line2d_31">
      <path clip-path="url(#p0304c97526)" d="M 0 92.135591 
L 460.8 92.135591 
" style="fill:none;stroke:#b0b0b0;stroke-linecap:square;stroke-width:0.8;"/>
     </g>
     <g id="line2d_32">
      <g>
       <use style="stroke:#000000;stroke-width:0.8;" x="0" xlink:href="#m10e594a70b" y="92.135591"/>
      </g>
     </g>
     <g id="text_17">
      <!-- 10 -->
      <g transform="translate(-19.725 95.93481)scale(0.1 -0.1)">
       <use xlink:href="#DejaVuSans-49"/>
       <use x="63.623047" xlink:href="#DejaVuSans-48"/>
      </g>
     </g>
    </g>
    <g id="ytick_8">
     <g id="line2d_33">
      <path clip-path="url(#p0304c97526)" d="M 0 50.682763 
L 460.8 50.682763 
" style="fill:none;stroke:#b0b0b0;stroke-linecap:square;stroke-width:0.8;"/>
     </g>
     <g id="line2d_34">
      <g>
       <use style="stroke:#000000;stroke-width:0.8;" x="0" xlink:href="#m10e594a70b" y="50.682763"/>
      </g>
     </g>
     <g id="text_18">
      <!-- 12 -->
      <g transform="translate(-19.725 54.481981)scale(0.1 -0.1)">
       <use xlink:href="#DejaVuSans-49"/>
       <use x="63.623047" xlink:href="#DejaVuSans-50"/>
      </g>
     </g>
    </g>
    <g id="ytick_9">
     <g id="line2d_35">
      <path clip-path="url(#p0304c97526)" d="M 0 9.229934 
L 460.8 9.229934 
" style="fill:none;stroke:#b0b0b0;stroke-linecap:square;stroke-width:0.8;"/>
     </g>
     <g id="line2d_36">
      <g>
       <use style="stroke:#000000;stroke-width:0.8;" x="0" xlink:href="#m10e594a70b" y="9.229934"/>
      </g>
     </g>
     <g id="text_19">
      <!-- 14 -->
      <g transform="translate(-19.725 13.029153)scale(0.1 -0.1)">
       <use xlink:href="#DejaVuSans-49"/>
       <use x="63.623047" xlink:href="#DejaVuSans-52"/>
      </g>
     </g>
    </g>
    <g id="text_20">
     <!-- y[m] -->
     <defs>
      <path d="M 32.171875 -5.078125 
Q 28.375 -14.84375 24.75 -17.8125 
Q 21.140625 -20.796875 15.09375 -20.796875 
L 7.90625 -20.796875 
L 7.90625 -13.28125 
L 13.1875 -13.28125 
Q 16.890625 -13.28125 18.9375 -11.515625 
Q 21 -9.765625 23.484375 -3.21875 
L 25.09375 0.875 
L 2.984375 54.6875 
L 12.5 54.6875 
L 29.59375 11.921875 
L 46.6875 54.6875 
L 56.203125 54.6875 
z
" id="DejaVuSans-121"/>
     </defs>
     <g transform="translate(-27.821875 184.53125)rotate(-90)scale(0.1 -0.1)">
      <use xlink:href="#DejaVuSans-121"/>
      <use x="59.179688" xlink:href="#DejaVuSans-91"/>
      <use x="98.193359" xlink:href="#DejaVuSans-109"/>
      <use x="195.605469" xlink:href="#DejaVuSans-93"/>
     </g>
    </g>
   </g>
   <g id="line2d_37">
    <path clip-path="url(#p0304c97526)" d="M 372.908952 168.618911 
L 389.170123 188.772526 
L 397.462832 199.400763 
L 406.210148 211.012697 
L 412.520556 219.246904 
L 417.08941 224.869479 
L 421.163656 229.541856 
L 429.442442 238.794954 
L 431.99154 242.101416 
L 433.744902 244.724431 
L 434.779363 246.543561 
L 435.658318 248.41654 
L 436.340703 250.341214 
L 436.806502 252.315749 
L 437.091752 254.33917 
L 437.280121 257.46414 
L 437.301364 262.892602 
L 437.124681 266.17255 
L 436.831339 268.290938 
L 436.33913 270.309459 
L 435.597975 272.189308 
L 434.557798 273.891681 
L 433.18304 275.380144 
L 431.516214 276.631014 
L 429.625955 277.624873 
L 427.580917 278.342305 
L 425.449663 278.764022 
L 423.293356 278.88146 
L 421.160253 278.704745 
L 419.097317 278.245876 
L 417.151512 277.516855 
L 415.369586 276.529751 
L 413.774433 275.304311 
L 412.343607 273.874874 
L 411.049594 272.277411 
L 409.304908 269.644854 
L 407.200694 265.882416 
L 404.086397 260.263594 
L 401.313912 255.858221 
L 397.811726 250.781434 
L 392.924128 244.113559 
L 391.57301 242.537872 
L 390.068467 241.102104 
L 388.371222 239.861699 
L 386.513639 238.852283 
L 384.544007 238.105073 
L 382.510614 237.651287 
L 380.456333 237.503569 
L 373.137662 237.518242 
L 371.081069 237.161247 
L 369.12914 236.499579 
L 367.330861 235.48409 
L 365.706829 234.160325 
L 364.269359 232.601458 
L 363.030762 230.880667 
L 361.999447 229.065986 
L 361.154122 227.186356 
L 360.158425 224.269115 
L 359.384459 221.267172 
L 357.211477 212.12046 
L 356.143005 209.147084 
L 355.240419 207.2274 
L 354.170044 205.403947 
L 352.922882 203.722074 
L 351.489935 202.227128 
L 349.86301 200.963503 
L 348.057212 199.947856 
L 346.114016 199.16546 
L 344.076313 198.599902 
L 341.986996 198.234765 
L 339.886969 198.051576 
L 336.74931 198.018479 
L 330.533375 198.084773 
L 328.482935 197.927124 
L 326.44506 197.580058 
L 324.431536 196.996045 
L 322.489344 196.167627 
L 320.672684 195.095568 
L 319.035754 193.780633 
L 317.631445 192.225102 
L 316.488913 190.458756 
L 315.616672 188.535299 
L 315.022547 186.509232 
L 314.714301 184.435006 
L 314.685242 182.355079 
L 314.895508 180.284397 
L 315.300608 178.234065 
L 316.176312 175.220771 
L 317.62599 171.320495 
L 319.465101 166.482297 
L 320.357441 163.511497 
L 320.786657 161.472916 
L 321.055086 159.388555 
L 321.156086 157.27892 
L 321.083739 155.165329 
L 320.832122 153.069103 
L 320.395315 151.011564 
L 319.767398 149.014031 
L 318.943064 147.097419 
L 317.929697 145.274285 
L 316.746623 143.549314 
L 315.413635 141.926889 
L 313.950524 140.411389 
L 312.377079 139.007197 
L 309.853256 137.119135 
L 307.178848 135.496108 
L 304.378166 134.121647 
L 301.471796 132.976548 
L 298.480324 132.041603 
L 295.424338 131.297607 
L 292.324349 130.726546 
L 289.199371 130.334153 
L 286.067044 130.148037 
L 282.944952 130.196624 
L 279.850683 130.508339 
L 276.801853 131.111415 
L 273.818892 132.016681 
L 270.927243 133.203923 
L 268.152868 134.649718 
L 265.520687 136.330372 
L 263.039663 138.218053 
L 260.706289 140.281697 
L 258.516648 142.490166 
L 255.795514 145.608909 
L 252.611297 149.696123 
L 245.116938 159.644357 
L 239.269438 166.90917 
L 235.058846 172.819961 
L 231.34583 177.792947 
L 227.54133 182.796037 
L 226.142296 184.323715 
L 224.599516 185.675031 
L 222.876763 186.79561 
L 220.996725 187.683527 
L 219.00165 188.354274 
L 216.933799 188.823348 
L 214.835424 189.106247 
L 212.740926 189.211943 
L 210.661855 189.130434 
L 208.605624 188.848286 
L 206.579647 188.352064 
L 204.597493 187.632376 
L 202.69629 186.695323 
L 200.918808 185.550709 
L 199.307817 184.208342 
L 197.906085 182.678027 
L 196.743213 180.974193 
L 195.795345 179.130037 
L 195.025066 177.183513 
L 194.120782 174.154818 
L 193.201816 170.078653 
L 190.945179 158.935234 
L 187.368495 143.81437 
L 184.800157 131.650672 
L 183.006691 122.458887 
L 182.589945 119.374715 
L 182.414174 116.276063 
L 182.475316 114.201762 
L 182.837574 111.095046 
L 183.484193 108.027683 
L 184.369628 105.037614 
L 185.448719 102.156539 
L 187.118156 98.416778 
L 190.313993 91.663797 
L 190.859176 89.642608 
L 190.931824 88.626095 
L 190.82932 87.609012 
L 190.527217 86.603144 
L 190.03019 85.659071 
L 189.350544 84.837538 
L 188.500669 84.199177 
L 187.507794 83.784734 
L 186.430989 83.592283 
L 185.333437 83.614382 
L 184.278323 83.843591 
L 183.328635 84.2724 
L 182.519695 84.883992 
L 181.831069 85.642788 
L 180.706217 87.450655 
L 176.835461 94.894718 
L 168.805691 109.378508 
L 166.621608 112.89678 
L 164.829124 115.438751 
L 162.855995 117.862433 
L 160.674504 120.118458 
L 159.102687 121.491635 
L 157.436494 122.732831 
L 155.675593 123.81864 
L 153.823052 124.733926 
L 151.893399 125.491466 
L 148.891406 126.37282 
L 145.811229 127.004203 
L 141.671034 127.556996 
L 137.525252 127.837326 
L 133.376981 127.880539 
L 129.229084 127.721783 
L 124.049101 127.292864 
L 118.882645 126.65902 
L 113.758638 125.784072 
L 109.715393 124.859427 
L 105.742873 123.692793 
L 101.859407 122.252301 
L 98.078046 120.542296 
L 94.410176 118.578559 
L 90.867316 116.376785 
L 87.471628 113.945456 
L 85.045598 111.969081 
L 82.742783 109.859312 
L 80.580937 107.61403 
L 78.577816 105.231116 
L 76.745183 102.712871 
L 74.531182 99.190014 
L 72.514572 95.550115 
L 69.250609 89.128094 
L 65.716576 81.78 
L 63.185669 76.029949 
L 58.908648 65.927402 
L 57.857563 64.100126 
L 56.669859 62.448859 
L 55.314669 61.021911 
L 53.761135 59.867587 
L 51.994712 59.016468 
L 50.051428 58.444205 
L 47.97708 58.115836 
L 45.817465 57.996398 
L 43.618381 58.050931 
L 40.345931 58.382446 
L 37.217243 58.935562 
L 34.235502 59.754483 
L 32.311251 60.490967 
L 30.425349 61.409827 
L 28.590119 62.526028 
L 26.866513 63.831944 
L 25.321656 65.31708 
L 24.022674 66.970941 
L 23.036693 68.783033 
L 22.425765 70.740761 
L 22.192121 72.806767 
L 22.298979 74.927542 
L 22.70889 77.049303 
L 23.384403 79.118264 
L 24.288069 81.080641 
L 25.382852 82.890864 
L 26.634417 84.556967 
L 28.732996 86.850523 
L 31.769629 89.680066 
L 36.487619 93.743146 
L 41.341658 97.63666 
L 46.321454 101.363601 
L 51.416712 104.926979 
L 57.492699 108.887297 
L 63.69247 112.659361 
L 70.907369 116.768088 
L 77.330991 120.166039 
L 82.923954 122.89949 
L 88.60137 125.440168 
L 94.367147 127.762099 
L 100.215485 129.868312 
L 110.057871 133.124257 
L 122.83472 137.393297 
L 136.515578 142.209784 
L 150.130838 147.251579 
L 175.397646 156.74019 
L 183.24193 159.400382 
L 190.159243 161.522469 
L 196.14467 163.135574 
L 200.196976 164.029982 
L 204.329144 164.701039 
L 207.459836 164.968877 
L 209.539403 164.981557 
L 211.598423 164.8275 
L 213.624583 164.478189 
L 215.609482 163.927492 
L 217.549513 163.196709 
L 219.441361 162.308816 
L 222.181543 160.73266 
L 224.794674 158.932255 
L 227.27234 156.981264 
L 230.392127 154.214833 
L 234.082442 150.577189 
L 256.664783 127.450535 
L 260.378338 123.959375 
L 263.312579 121.506102 
L 277.012818 110.93281 
L 277.985246 110.432564 
L 278.886163 110.125081 
L 279.696646 110.049799 
L 280.397769 110.246153 
L 280.970638 110.753529 
L 281.416432 111.574401 
L 283.032173 115.936427 
L 283.569018 116.845646 
L 284.197058 117.529255 
L 284.933736 117.912415 
L 285.782047 117.967624 
L 286.718765 117.7533 
L 288.753425 116.786052 
L 292.796327 114.46282 
L 295.598439 113.163405 
L 298.387891 112.15207 
L 301.324669 111.324032 
L 304.404724 110.702503 
L 307.558421 110.361868 
L 309.667326 110.32763 
L 311.75725 110.473434 
L 313.807918 110.820385 
L 315.809083 111.36552 
L 317.760948 112.080818 
L 320.597807 113.408974 
L 323.327604 114.956096 
L 325.952929 116.652017 
L 329.296193 119.113619 
L 332.466653 121.77599 
L 335.473296 124.608711 
L 338.337006 127.584278 
L 341.755863 131.46477 
L 345.69082 136.290138 
L 359.93271 154.194364 
L 365.409428 160.419421 
L 372.397065 168.063737 
L 372.397065 168.063737 
" style="fill:none;stroke:#0000ff;stroke-linecap:square;stroke-width:1.5;"/>
   </g>
   <g id="line2d_38">
    <path clip-path="url(#p0304c97526)" d="M 372.908952 168.618911 
L 375.352852 171.784051 
L 378.548294 175.800301 
L 383.449938 181.666043 
L 388.185641 187.056627 
L 389.125361 188.195056 
L 390.642768 189.98524 
L 392.755125 192.754947 
L 393.89957 194.303819 
L 395.448965 196.365339 
L 397.139756 198.463201 
L 400.301864 202.626208 
L 406.835938 211.064138 
L 409.382959 214.238909 
L 416.918391 223.576711 
L 421.291596 228.52022 
L 421.751115 228.776052 
L 422.192313 229.480395 
L 425.295004 232.628105 
L 426.701567 234.149004 
L 428.58745 236.220713 
L 430.122706 237.822434 
L 431.271436 239.310193 
L 432.88885 240.932823 
L 433.666237 241.751501 
L 436.956639 246.661609 
L 438.612268 250.685973 
L 439.101839 252.708008 
L 439.579106 254.491769 
L 439.948635 260.177125 
L 439.949647 261.851709 
L 440.060142 264.303627 
L 439.776212 267.723882 
L 439.425424 270.687693 
L 439.094948 271.756531 
L 438.525382 273.198889 
L 437.634451 275.605815 
L 437.017751 276.622591 
L 433.494004 280.42209 
L 432.838639 280.814122 
L 430.98998 281.828164 
L 428.826739 283.100127 
L 427.934351 283.337517 
L 425.801384 283.787067 
L 423.257962 284.385485 
L 417.393054 284.420627 
L 414.645823 283.599584 
L 412.29508 282.925135 
L 407.996389 280.504229 
L 407.212916 279.881573 
L 403.61874 276.127486 
L 402.556446 274.396734 
L 401.439847 273.058556 
L 400.575151 271.981212 
L 399.398649 270.021968 
L 397.538962 266.888353 
L 396.005254 263.997129 
L 391.038783 256.445823 
L 387.380895 251.829703 
L 385.332118 249.086082 
L 383.156635 246.723547 
L 381.359884 245.0771 
L 379.129113 243.395956 
L 377.169108 242.156596 
L 376.017831 241.681474 
L 375.186329 241.586931 
L 373.352252 241.792824 
L 372.437719 241.787682 
L 370.366574 241.671242 
L 368.371456 241.572123 
L 367.683647 241.328705 
L 363.517466 239.334216 
L 362.553523 238.604129 
L 359.512292 235.759597 
L 356.889067 232.092554 
L 355.537298 229.219798 
L 354.792973 227.347786 
L 353.614423 223.507582 
L 352.988129 221.256346 
L 352.064054 216.83109 
L 350.727704 211.65896 
L 349.605626 209.140904 
L 349.33903 208.844912 
L 349.087225 208.046376 
L 348.358495 206.893773 
L 347.786003 206.338058 
L 346.12856 205.1582 
L 344.258155 204.00366 
L 342.941505 203.472301 
L 341.807659 203.22576 
L 340.283292 203.154671 
L 337.956315 203.072694 
L 335.746194 203.0838 
L 330.615031 203.445856 
L 327.631617 203.370561 
L 326.054674 203.113965 
L 322.526832 202.375374 
L 320.882183 201.780208 
L 318.642795 201.104876 
L 316.272292 199.831573 
L 314.17469 198.660279 
L 313.449383 197.910506 
L 310.735846 194.807795 
L 310.146473 193.910558 
L 307.833238 188.808258 
L 307.005537 184.297111 
L 306.956581 183.255574 
L 307.024015 181.669026 
L 306.855417 180.208738 
L 306.414753 177.490191 
L 306.519649 175.635982 
L 306.453861 170.637509 
L 307.428643 167.238245 
L 308.310778 164.224829 
L 309.235158 162.280798 
L 310.429917 159.609449 
L 311.172716 157.40555 
L 311.814171 154.804674 
L 312.297045 152.068807 
L 312.596548 149.020904 
L 312.598333 146.67379 
L 312.434893 145.256848 
L 312.142992 144.469197 
L 311.733109 143.884465 
L 310.692316 142.895164 
L 306.321993 139.127082 
L 304.029096 138.020713 
L 301.452262 136.795237 
L 295.485848 135.095131 
L 292.401893 134.572603 
L 286.07183 133.84689 
L 281.581537 133.886012 
L 279.875594 134.116028 
L 274.651076 135.157179 
L 273.455657 135.643241 
L 268.391881 138.352158 
L 263.832995 141.921054 
L 261.445315 144.15185 
L 259.94532 145.685741 
L 258.586514 147.504036 
L 257.23437 149.229467 
L 255.624171 151.316095 
L 252.22612 156.124973 
L 248.682451 161.077248 
L 246.477762 163.858701 
L 242.733805 168.522929 
L 238.628869 174.436045 
L 237.198015 176.54832 
L 232.133185 183.305052 
L 230.578854 185.394075 
L 227.860275 188.496687 
L 225.248676 190.556151 
L 224.322499 191.04002 
L 220.533853 192.71042 
L 214.443702 194.001418 
L 211.129857 194.245567 
L 209.517386 194.140154 
L 205.565248 193.530273 
L 204.015353 193.159128 
L 202.543969 192.497499 
L 200.282698 191.656619 
L 199.545077 191.286099 
L 195.620069 188.71234 
L 192.946047 186.137438 
L 191.66244 184.179687 
L 189.750414 181.46173 
L 188.522043 178.628596 
L 187.793171 176.704418 
L 187.324051 174.676517 
L 186.483152 172.708847 
L 186.22338 171.89623 
L 185.646092 168.897486 
L 184.836984 164.596338 
L 184.092615 160.917498 
L 182.455361 154.949248 
L 181.974793 152.928437 
L 181.362589 150.35643 
L 180.478418 147.065752 
L 179.840552 144.163196 
L 178.893573 140.606169 
L 178.324714 137.894361 
L 177.415513 134.280503 
L 176.411422 129.326063 
L 174.725703 120.32821 
L 174.408674 116.951769 
L 174.321309 113.313491 
L 174.507584 111.327728 
L 175.169397 106.749575 
L 176.056045 103.160232 
L 176.47072 101.781993 
L 177.774401 98.418965 
L 178.595732 96.126599 
L 181.441243 89.989169 
L 181.659895 89.737297 
L 181.954235 88.878453 
L 183.696342 85.377606 
L 183.772578 84.575048 
L 183.631041 83.775162 
L 183.283737 83.047658 
L 182.755557 82.438624 
L 182.079013 81.989032 
L 181.29772 81.735132 
L 180.390361 81.708392 
L 177.047128 82.151423 
L 174.414656 82.725442 
L 171.813867 83.529238 
L 168.930628 84.651356 
L 167.004905 85.575495 
L 166.000462 86.320539 
L 164.828703 87.433517 
L 163.606215 88.909031 
L 162.452101 90.718214 
L 160.024085 95.060133 
L 157.636389 99.655494 
L 154.922219 105.334404 
L 153.760371 108.144726 
L 152.950449 110.733866 
L 152.465673 113.001917 
L 152.123488 115.711987 
L 151.977382 118.439378 
L 151.880795 121.569032 
L 151.562482 122.29628 
L 151.020682 122.958039 
L 150.303499 123.446064 
L 149.619819 123.681824 
L 148.088932 124.040988 
L 146.215805 124.777748 
L 144.12611 125.582427 
L 140.151756 126.403509 
L 138.612743 126.763916 
L 135.622313 127.035889 
L 132.842031 127.828688 
L 131.089101 128.056353 
L 128.892196 128.399672 
L 126.852285 128.404266 
L 124.671496 128.483839 
L 122.807823 128.252263 
L 120.834741 128.350691 
L 119.982555 128.306966 
L 117.80711 128.123533 
L 115.308754 127.915854 
L 109.624814 126.647645 
L 106.889832 125.879949 
L 104.980189 125.389056 
L 100.775019 123.778993 
L 97.917136 122.515047 
L 93.397341 120.316088 
L 90.818379 118.743448 
L 89.426823 117.956035 
L 88.240079 117.068953 
L 85.453765 115.41644 
L 84.497113 114.656146 
L 83.246112 114.032576 
L 81.330223 113.457689 
L 80.597596 113.128422 
L 79.93054 112.568982 
L 78.973128 111.527574 
L 78.057397 110.878358 
L 76.88376 110.357637 
L 74.697064 109.502324 
L 73.883023 108.778402 
L 72.675578 107.871276 
L 70.056894 106.137271 
L 69.390399 105.221188 
L 66.876496 101.434441 
L 66.119778 100.052522 
L 64.997719 98.104561 
L 62.605008 93.473588 
L 61.820655 91.8756 
L 60.767677 89.760637 
L 59.620913 87.3607 
L 58.299467 84.566791 
L 57.367048 82.490944 
L 56.870702 81.338877 
L 56.586965 81.053681 
L 56.31837 80.222861 
L 54.967226 77.36156 
L 53.857236 74.527582 
L 52.598392 71.520389 
L 51.695971 69.320519 
L 50.804009 67.791155 
L 46.467786 61.748743 
L 45.772891 61.310542 
L 44.988359 61.077405 
L 44.176163 61.063976 
L 42.516296 61.231086 
L 37.823983 61.30546 
L 36.272458 61.798505 
L 34.747284 61.998553 
L 32.455989 62.263536 
L 31.588746 62.682809 
L 30.045719 63.497997 
L 27.424481 64.641048 
L 24.781064 66.808751 
L 23.069961 67.990291 
L 22.499317 68.667966 
L 22.157951 69.429443 
L 20.726414 73.746691 
L 20.839453 74.739838 
L 21.414716 78.916776 
L 22.416763 81.287029 
L 23.152432 83.563167 
L 25.524498 87.091977 
L 29.138838 90.953546 
L 33.289593 94.32446 
L 39.521824 99.457339 
L 42.394154 101.517661 
L 44.134728 102.900424 
L 48.208301 105.72804 
L 50.783567 107.480186 
L 53.719628 109.401956 
L 55.936384 110.774854 
L 58.371063 112.300349 
L 59.799646 113.185151 
L 61.84947 114.384236 
L 64.041169 115.731738 
L 70.789536 119.280561 
L 74.977307 121.539394 
L 84.615821 126.167997 
L 85.314106 126.334563 
L 85.658788 126.658015 
L 88.994459 128.133775 
L 100.911948 132.525734 
L 119.609603 138.493753 
L 122.538511 139.451284 
L 130.679327 142.177209 
L 134.949553 143.733211 
L 141.900817 146.140336 
L 150.840857 149.440744 
L 157.327924 151.849344 
L 160.984059 153.204862 
L 164.479741 154.503341 
L 171.534197 157.018585 
L 177.48382 158.994316 
L 180.892164 160.096954 
L 182.979301 160.735129 
L 184.855558 161.371916 
L 186.723835 161.993754 
L 189.705413 162.814412 
L 191.669199 163.44016 
L 193.994742 164.0064 
L 196.962375 164.862439 
L 204.326307 165.992137 
L 208.217654 166.365406 
L 211.957231 166.436066 
L 216.81699 165.421355 
L 218.577312 164.504034 
L 220.271177 163.786942 
L 222.252459 162.878401 
L 223.345554 162.109901 
L 225.781134 160.08672 
L 226.681468 159.369596 
L 227.651423 158.285194 
L 229.160455 156.484343 
L 230.540845 155.285578 
L 231.569775 153.97205 
L 232.619131 152.614013 
L 233.650804 151.610169 
L 236.56282 148.297581 
L 239.253308 145.676446 
L 241.671398 143.088131 
L 243.726513 140.91829 
L 244.693466 139.94921 
L 245.161838 139.720985 
L 245.615309 139.057697 
L 247.228173 137.314089 
L 252.628659 131.132663 
L 254.226119 129.605046 
L 256.805016 126.838121 
L 258.997304 124.714118 
L 260.677098 122.950185 
L 262.314042 121.611728 
L 264.381469 119.836535 
L 274.35619 112.556202 
L 276.092868 111.451024 
L 279.379511 109.222661 
L 280.219954 109.048685 
L 281.03593 109.111518 
L 281.754775 109.367634 
L 282.385979 109.796554 
L 282.906482 110.395966 
L 283.264062 111.145766 
L 283.728323 112.51104 
L 284.461516 114.48744 
L 285.223055 116.824363 
L 285.712461 117.437694 
L 286.34661 117.905025 
L 287.098286 118.19638 
L 287.742377 118.278749 
L 288.695118 118.142458 
L 289.420129 117.804263 
L 291.20111 116.688803 
L 294.106793 115.090966 
L 295.844391 114.158616 
L 297.181895 113.698089 
L 298.805927 113.158602 
L 300.962483 112.366803 
L 302.792321 111.939183 
L 309.209031 110.970036 
L 312.690299 110.799852 
L 314.822249 111.042481 
L 317.308358 111.290613 
L 319.213989 112.003293 
L 322.337769 113.176915 
L 324.614898 114.596826 
L 327.077445 115.755248 
L 328.242315 116.621455 
L 329.269531 117.089065 
L 330.536766 117.390779 
L 332.801044 117.806808 
L 333.524393 118.257329 
L 334.787882 119.248875 
L 336.440719 120.193973 
L 338.267013 121.217338 
L 340.021599 122.60805 
L 342.546901 124.26502 
L 343.961542 125.841224 
L 346.475605 128.48029 
L 355.48171 139.800054 
L 359.66334 145.180597 
L 362.227959 148.175609 
L 364.512731 150.789836 
L 365.032724 151.103477 
L 365.289309 151.711223 
L 369.273342 156.214152 
L 377.088373 164.684714 
L 377.088373 164.684714 
" style="fill:none;stroke:#008000;stroke-dasharray:5.55,2.4;stroke-dashoffset:0;stroke-width:1.5;"/>
   </g>
   <g id="patch_3">
    <path d="M 0 345.6 
L 0 0 
" style="fill:none;stroke:#000000;stroke-linecap:square;stroke-linejoin:miter;stroke-width:0.8;"/>
   </g>
   <g id="patch_4">
    <path d="M 460.8 345.6 
L 460.8 0 
" style="fill:none;stroke:#000000;stroke-linecap:square;stroke-linejoin:miter;stroke-width:0.8;"/>
   </g>
   <g id="patch_5">
    <path d="M -0 345.6 
L 460.8 345.6 
" style="fill:none;stroke:#000000;stroke-linecap:square;stroke-linejoin:miter;stroke-width:0.8;"/>
   </g>
   <g id="patch_6">
    <path d="M -0 0 
L 460.8 0 
" style="fill:none;stroke:#000000;stroke-linecap:square;stroke-linejoin:miter;stroke-width:0.8;"/>
   </g>
   <g id="legend_1">
    <g id="patch_7">
     <path d="M 370.976562 37.35625 
L 453.8 37.35625 
Q 455.8 37.35625 455.8 35.35625 
L 455.8 7 
Q 455.8 5 453.8 5 
L 370.976562 5 
Q 368.976562 5 368.976562 7 
L 368.976562 35.35625 
Q 368.976562 37.35625 370.976562 37.35625 
z
" style="fill:#ffffff;opacity:0.8;stroke:#cccccc;stroke-linejoin:miter;"/>
    </g>
    <g id="line2d_39">
     <path d="M 372.976562 13.098437 
L 392.976562 13.098437 
" style="fill:none;stroke:#0000ff;stroke-linecap:square;stroke-width:1.5;"/>
    </g>
    <g id="line2d_40"/>
    <g id="text_21">
     <!-- Trajectory -->
     <defs>
      <path d="M -0.296875 72.90625 
L 61.375 72.90625 
L 61.375 64.59375 
L 35.5 64.59375 
L 35.5 0 
L 25.59375 0 
L 25.59375 64.59375 
L -0.296875 64.59375 
z
" id="DejaVuSans-84"/>
      <path d="M 41.109375 46.296875 
Q 39.59375 47.171875 37.8125 47.578125 
Q 36.03125 48 33.890625 48 
Q 26.265625 48 22.1875 43.046875 
Q 18.109375 38.09375 18.109375 28.8125 
L 18.109375 0 
L 9.078125 0 
L 9.078125 54.6875 
L 18.109375 54.6875 
L 18.109375 46.1875 
Q 20.953125 51.171875 25.484375 53.578125 
Q 30.03125 56 36.53125 56 
Q 37.453125 56 38.578125 55.875 
Q 39.703125 55.765625 41.0625 55.515625 
z
" id="DejaVuSans-114"/>
      <path d="M 34.28125 27.484375 
Q 23.390625 27.484375 19.1875 25 
Q 14.984375 22.515625 14.984375 16.5 
Q 14.984375 11.71875 18.140625 8.90625 
Q 21.296875 6.109375 26.703125 6.109375 
Q 34.1875 6.109375 38.703125 11.40625 
Q 43.21875 16.703125 43.21875 25.484375 
L 43.21875 27.484375 
z
M 52.203125 31.203125 
L 52.203125 0 
L 43.21875 0 
L 43.21875 8.296875 
Q 40.140625 3.328125 35.546875 0.953125 
Q 30.953125 -1.421875 24.3125 -1.421875 
Q 15.921875 -1.421875 10.953125 3.296875 
Q 6 8.015625 6 15.921875 
Q 6 25.140625 12.171875 29.828125 
Q 18.359375 34.515625 30.609375 34.515625 
L 43.21875 34.515625 
L 43.21875 35.40625 
Q 43.21875 41.609375 39.140625 45 
Q 35.0625 48.390625 27.6875 48.390625 
Q 23 48.390625 18.546875 47.265625 
Q 14.109375 46.140625 10.015625 43.890625 
L 10.015625 52.203125 
Q 14.9375 54.109375 19.578125 55.046875 
Q 24.21875 56 28.609375 56 
Q 40.484375 56 46.34375 49.84375 
Q 52.203125 43.703125 52.203125 31.203125 
z
" id="DejaVuSans-97"/>
      <path d="M 9.421875 54.6875 
L 18.40625 54.6875 
L 18.40625 -0.984375 
Q 18.40625 -11.421875 14.421875 -16.109375 
Q 10.453125 -20.796875 1.609375 -20.796875 
L -1.8125 -20.796875 
L -1.8125 -13.1875 
L 0.59375 -13.1875 
Q 5.71875 -13.1875 7.5625 -10.8125 
Q 9.421875 -8.453125 9.421875 -0.984375 
z
M 9.421875 75.984375 
L 18.40625 75.984375 
L 18.40625 64.59375 
L 9.421875 64.59375 
z
" id="DejaVuSans-106"/>
      <path d="M 56.203125 29.59375 
L 56.203125 25.203125 
L 14.890625 25.203125 
Q 15.484375 15.921875 20.484375 11.0625 
Q 25.484375 6.203125 34.421875 6.203125 
Q 39.59375 6.203125 44.453125 7.46875 
Q 49.3125 8.734375 54.109375 11.28125 
L 54.109375 2.78125 
Q 49.265625 0.734375 44.1875 -0.34375 
Q 39.109375 -1.421875 33.890625 -1.421875 
Q 20.796875 -1.421875 13.15625 6.1875 
Q 5.515625 13.8125 5.515625 26.8125 
Q 5.515625 40.234375 12.765625 48.109375 
Q 20.015625 56 32.328125 56 
Q 43.359375 56 49.78125 48.890625 
Q 56.203125 41.796875 56.203125 29.59375 
z
M 47.21875 32.234375 
Q 47.125 39.59375 43.09375 43.984375 
Q 39.0625 48.390625 32.421875 48.390625 
Q 24.90625 48.390625 20.390625 44.140625 
Q 15.875 39.890625 15.1875 32.171875 
z
" id="DejaVuSans-101"/>
      <path d="M 48.78125 52.59375 
L 48.78125 44.1875 
Q 44.96875 46.296875 41.140625 47.34375 
Q 37.3125 48.390625 33.40625 48.390625 
Q 24.65625 48.390625 19.8125 42.84375 
Q 14.984375 37.3125 14.984375 27.296875 
Q 14.984375 17.28125 19.8125 11.734375 
Q 24.65625 6.203125 33.40625 6.203125 
Q 37.3125 6.203125 41.140625 7.25 
Q 44.96875 8.296875 48.78125 10.40625 
L 48.78125 2.09375 
Q 45.015625 0.34375 40.984375 -0.53125 
Q 36.96875 -1.421875 32.421875 -1.421875 
Q 20.0625 -1.421875 12.78125 6.34375 
Q 5.515625 14.109375 5.515625 27.296875 
Q 5.515625 40.671875 12.859375 48.328125 
Q 20.21875 56 33.015625 56 
Q 37.15625 56 41.109375 55.140625 
Q 45.0625 54.296875 48.78125 52.59375 
z
" id="DejaVuSans-99"/>
      <path d="M 18.3125 70.21875 
L 18.3125 54.6875 
L 36.8125 54.6875 
L 36.8125 47.703125 
L 18.3125 47.703125 
L 18.3125 18.015625 
Q 18.3125 11.328125 20.140625 9.421875 
Q 21.96875 7.515625 27.59375 7.515625 
L 36.8125 7.515625 
L 36.8125 0 
L 27.59375 0 
Q 17.1875 0 13.234375 3.875 
Q 9.28125 7.765625 9.28125 18.015625 
L 9.28125 47.703125 
L 2.6875 47.703125 
L 2.6875 54.6875 
L 9.28125 54.6875 
L 9.28125 70.21875 
z
" id="DejaVuSans-116"/>
      <path d="M 30.609375 48.390625 
Q 23.390625 48.390625 19.1875 42.75 
Q 14.984375 37.109375 14.984375 27.296875 
Q 14.984375 17.484375 19.15625 11.84375 
Q 23.34375 6.203125 30.609375 6.203125 
Q 37.796875 6.203125 41.984375 11.859375 
Q 46.1875 17.53125 46.1875 27.296875 
Q 46.1875 37.015625 41.984375 42.703125 
Q 37.796875 48.390625 30.609375 48.390625 
z
M 30.609375 56 
Q 42.328125 56 49.015625 48.375 
Q 55.71875 40.765625 55.71875 27.296875 
Q 55.71875 13.875 49.015625 6.21875 
Q 42.328125 -1.421875 30.609375 -1.421875 
Q 18.84375 -1.421875 12.171875 6.21875 
Q 5.515625 13.875 5.515625 27.296875 
Q 5.515625 40.765625 12.171875 48.375 
Q 18.84375 56 30.609375 56 
z
" id="DejaVuSans-111"/>
     </defs>
     <g transform="translate(400.976562 16.598437)scale(0.1 -0.1)">
      <use xlink:href="#DejaVuSans-84"/>
      <use x="60.865234" xlink:href="#DejaVuSans-114"/>
      <use x="101.978516" xlink:href="#DejaVuSans-97"/>
      <use x="163.257812" xlink:href="#DejaVuSans-106"/>
      <use x="191.041016" xlink:href="#DejaVuSans-101"/>
      <use x="252.564453" xlink:href="#DejaVuSans-99"/>
      <use x="307.544922" xlink:href="#DejaVuSans-116"/>
      <use x="346.753906" xlink:href="#DejaVuSans-111"/>
      <use x="407.935547" xlink:href="#DejaVuSans-114"/>
      <use x="449.048828" xlink:href="#DejaVuSans-121"/>
     </g>
    </g>
    <g id="line2d_41">
     <path d="M 372.976562 27.776563 
L 392.976562 27.776563 
" style="fill:none;stroke:#008000;stroke-dasharray:5.55,2.4;stroke-dashoffset:0;stroke-width:1.5;"/>
    </g>
    <g id="line2d_42"/>
    <g id="text_22">
     <!-- Tracking -->
     <defs>
      <path d="M 9.078125 75.984375 
L 18.109375 75.984375 
L 18.109375 31.109375 
L 44.921875 54.6875 
L 56.390625 54.6875 
L 27.390625 29.109375 
L 57.625 0 
L 45.90625 0 
L 18.109375 26.703125 
L 18.109375 0 
L 9.078125 0 
z
" id="DejaVuSans-107"/>
      <path d="M 9.421875 54.6875 
L 18.40625 54.6875 
L 18.40625 0 
L 9.421875 0 
z
M 9.421875 75.984375 
L 18.40625 75.984375 
L 18.40625 64.59375 
L 9.421875 64.59375 
z
" id="DejaVuSans-105"/>
      <path d="M 54.890625 33.015625 
L 54.890625 0 
L 45.90625 0 
L 45.90625 32.71875 
Q 45.90625 40.484375 42.875 44.328125 
Q 39.84375 48.1875 33.796875 48.1875 
Q 26.515625 48.1875 22.3125 43.546875 
Q 18.109375 38.921875 18.109375 30.90625 
L 18.109375 0 
L 9.078125 0 
L 9.078125 54.6875 
L 18.109375 54.6875 
L 18.109375 46.1875 
Q 21.34375 51.125 25.703125 53.5625 
Q 30.078125 56 35.796875 56 
Q 45.21875 56 50.046875 50.171875 
Q 54.890625 44.34375 54.890625 33.015625 
z
" id="DejaVuSans-110"/>
      <path d="M 45.40625 27.984375 
Q 45.40625 37.75 41.375 43.109375 
Q 37.359375 48.484375 30.078125 48.484375 
Q 22.859375 48.484375 18.828125 43.109375 
Q 14.796875 37.75 14.796875 27.984375 
Q 14.796875 18.265625 18.828125 12.890625 
Q 22.859375 7.515625 30.078125 7.515625 
Q 37.359375 7.515625 41.375 12.890625 
Q 45.40625 18.265625 45.40625 27.984375 
z
M 54.390625 6.78125 
Q 54.390625 -7.171875 48.1875 -13.984375 
Q 42 -20.796875 29.203125 -20.796875 
Q 24.46875 -20.796875 20.265625 -20.09375 
Q 16.0625 -19.390625 12.109375 -17.921875 
L 12.109375 -9.1875 
Q 16.0625 -11.328125 19.921875 -12.34375 
Q 23.78125 -13.375 27.78125 -13.375 
Q 36.625 -13.375 41.015625 -8.765625 
Q 45.40625 -4.15625 45.40625 5.171875 
L 45.40625 9.625 
Q 42.625 4.78125 38.28125 2.390625 
Q 33.9375 0 27.875 0 
Q 17.828125 0 11.671875 7.65625 
Q 5.515625 15.328125 5.515625 27.984375 
Q 5.515625 40.671875 11.671875 48.328125 
Q 17.828125 56 27.875 56 
Q 33.9375 56 38.28125 53.609375 
Q 42.625 51.21875 45.40625 46.390625 
L 45.40625 54.6875 
L 54.390625 54.6875 
z
" id="DejaVuSans-103"/>
     </defs>
     <g transform="translate(400.976562 31.276563)scale(0.1 -0.1)">
      <use xlink:href="#DejaVuSans-84"/>
      <use x="60.865234" xlink:href="#DejaVuSans-114"/>
      <use x="101.978516" xlink:href="#DejaVuSans-97"/>
      <use x="163.257812" xlink:href="#DejaVuSans-99"/>
      <use x="218.238281" xlink:href="#DejaVuSans-107"/>
      <use x="276.148438" xlink:href="#DejaVuSans-105"/>
      <use x="303.931641" xlink:href="#DejaVuSans-110"/>
      <use x="367.310547" xlink:href="#DejaVuSans-103"/>
     </g>
    </g>
   </g>
  </g>
 </g>
 <defs>
  <clipPath id="p0304c97526">
   <rect height="345.6" width="460.8" x="0" y="0"/>
  </clipPath>
 </defs>
</svg>
