<?xml version="1.0" encoding="utf-8" standalone="no"?>
<!DOCTYPE svg PUBLIC "-//W3C//DTD SVG 1.1//EN"
  "http://www.w3.org/Graphics/SVG/1.1/DTD/svg11.dtd">
<!-- Created with matplotlib (https://matplotlib.org/) -->
<svg height="345.6pt" version="1.1" viewBox="0 0 460.8 345.6" width="460.8pt" xmlns="http://www.w3.org/2000/svg" xmlns:xlink="http://www.w3.org/1999/xlink">
 <defs>
  <style type="text/css">
*{stroke-linecap:butt;stroke-linejoin:round;}
  </style>
 </defs>
 <g id="figure_1">
  <g id="patch_1">
   <path d="M 0 345.6 
L 460.8 345.6 
L 460.8 0 
L 0 0 
z
" style="fill:#ffffff;"/>
  </g>
  <g id="axes_1">
   <g id="patch_2">
    <path d="M 0 345.6 
L 460.8 345.6 
L 460.8 0 
L 0 0 
z
" style="fill:#ffffff;"/>
   </g>
   <g id="matplotlib.axis_1">
    <g id="xtick_1">
     <g id="line2d_1">
      <path clip-path="url(#p27fa53471c)" d="M 0 345.6 
L 0 0 
" style="fill:none;stroke:#b0b0b0;stroke-linecap:square;stroke-width:0.8;"/>
     </g>
     <g id="line2d_2">
      <defs>
       <path d="M 0 0 
L 0 3.5 
" id="m6a4f89c047" style="stroke:#000000;stroke-width:0.8;"/>
      </defs>
      <g>
       <use style="stroke:#000000;stroke-width:0.8;" x="0" xlink:href="#m6a4f89c047" y="345.6"/>
      </g>
     </g>
     <g id="text_1">
      <!-- 0.0 -->
      <defs>
       <path d="M 31.78125 66.40625 
Q 24.171875 66.40625 20.328125 58.90625 
Q 16.5 51.421875 16.5 36.375 
Q 16.5 21.390625 20.328125 13.890625 
Q 24.171875 6.390625 31.78125 6.390625 
Q 39.453125 6.390625 43.28125 13.890625 
Q 47.125 21.390625 47.125 36.375 
Q 47.125 51.421875 43.28125 58.90625 
Q 39.453125 66.40625 31.78125 66.40625 
z
M 31.78125 74.21875 
Q 44.046875 74.21875 50.515625 64.515625 
Q 56.984375 54.828125 56.984375 36.375 
Q 56.984375 17.96875 50.515625 8.265625 
Q 44.046875 -1.421875 31.78125 -1.421875 
Q 19.53125 -1.421875 13.0625 8.265625 
Q 6.59375 17.96875 6.59375 36.375 
Q 6.59375 54.828125 13.0625 64.515625 
Q 19.53125 74.21875 31.78125 74.21875 
z
" id="DejaVuSans-48"/>
       <path d="M 10.6875 12.40625 
L 21 12.40625 
L 21 0 
L 10.6875 0 
z
" id="DejaVuSans-46"/>
      </defs>
      <g transform="translate(-7.951563 360.198437)scale(0.1 -0.1)">
       <use xlink:href="#DejaVuSans-48"/>
       <use x="63.623047" xlink:href="#DejaVuSans-46"/>
       <use x="95.410156" xlink:href="#DejaVuSans-48"/>
      </g>
     </g>
    </g>
    <g id="xtick_2">
     <g id="line2d_3">
      <path clip-path="url(#p27fa53471c)" d="M 51.2 345.6 
L 51.2 0 
" style="fill:none;stroke:#b0b0b0;stroke-linecap:square;stroke-width:0.8;"/>
     </g>
     <g id="line2d_4">
      <g>
       <use style="stroke:#000000;stroke-width:0.8;" x="51.2" xlink:href="#m6a4f89c047" y="345.6"/>
      </g>
     </g>
     <g id="text_2">
      <!-- 2.5 -->
      <defs>
       <path d="M 19.1875 8.296875 
L 53.609375 8.296875 
L 53.609375 0 
L 7.328125 0 
L 7.328125 8.296875 
Q 12.9375 14.109375 22.625 23.890625 
Q 32.328125 33.6875 34.8125 36.53125 
Q 39.546875 41.84375 41.421875 45.53125 
Q 43.3125 49.21875 43.3125 52.78125 
Q 43.3125 58.59375 39.234375 62.25 
Q 35.15625 65.921875 28.609375 65.921875 
Q 23.96875 65.921875 18.8125 64.3125 
Q 13.671875 62.703125 7.8125 59.421875 
L 7.8125 69.390625 
Q 13.765625 71.78125 18.9375 73 
Q 24.125 74.21875 28.421875 74.21875 
Q 39.75 74.21875 46.484375 68.546875 
Q 53.21875 62.890625 53.21875 53.421875 
Q 53.21875 48.921875 51.53125 44.890625 
Q 49.859375 40.875 45.40625 35.40625 
Q 44.1875 33.984375 37.640625 27.21875 
Q 31.109375 20.453125 19.1875 8.296875 
z
" id="DejaVuSans-50"/>
       <path d="M 10.796875 72.90625 
L 49.515625 72.90625 
L 49.515625 64.59375 
L 19.828125 64.59375 
L 19.828125 46.734375 
Q 21.96875 47.46875 24.109375 47.828125 
Q 26.265625 48.1875 28.421875 48.1875 
Q 40.625 48.1875 47.75 41.5 
Q 54.890625 34.8125 54.890625 23.390625 
Q 54.890625 11.625 47.5625 5.09375 
Q 40.234375 -1.421875 26.90625 -1.421875 
Q 22.3125 -1.421875 17.546875 -0.640625 
Q 12.796875 0.140625 7.71875 1.703125 
L 7.71875 11.625 
Q 12.109375 9.234375 16.796875 8.0625 
Q 21.484375 6.890625 26.703125 6.890625 
Q 35.15625 6.890625 40.078125 11.328125 
Q 45.015625 15.765625 45.015625 23.390625 
Q 45.015625 31 40.078125 35.4375 
Q 35.15625 39.890625 26.703125 39.890625 
Q 22.75 39.890625 18.8125 39.015625 
Q 14.890625 38.140625 10.796875 36.28125 
z
" id="DejaVuSans-53"/>
      </defs>
      <g transform="translate(43.248438 360.198437)scale(0.1 -0.1)">
       <use xlink:href="#DejaVuSans-50"/>
       <use x="63.623047" xlink:href="#DejaVuSans-46"/>
       <use x="95.410156" xlink:href="#DejaVuSans-53"/>
      </g>
     </g>
    </g>
    <g id="xtick_3">
     <g id="line2d_5">
      <path clip-path="url(#p27fa53471c)" d="M 102.4 345.6 
L 102.4 0 
" style="fill:none;stroke:#b0b0b0;stroke-linecap:square;stroke-width:0.8;"/>
     </g>
     <g id="line2d_6">
      <g>
       <use style="stroke:#000000;stroke-width:0.8;" x="102.4" xlink:href="#m6a4f89c047" y="345.6"/>
      </g>
     </g>
     <g id="text_3">
      <!-- 5.0 -->
      <g transform="translate(94.448438 360.198437)scale(0.1 -0.1)">
       <use xlink:href="#DejaVuSans-53"/>
       <use x="63.623047" xlink:href="#DejaVuSans-46"/>
       <use x="95.410156" xlink:href="#DejaVuSans-48"/>
      </g>
     </g>
    </g>
    <g id="xtick_4">
     <g id="line2d_7">
      <path clip-path="url(#p27fa53471c)" d="M 153.6 345.6 
L 153.6 0 
" style="fill:none;stroke:#b0b0b0;stroke-linecap:square;stroke-width:0.8;"/>
     </g>
     <g id="line2d_8">
      <g>
       <use style="stroke:#000000;stroke-width:0.8;" x="153.6" xlink:href="#m6a4f89c047" y="345.6"/>
      </g>
     </g>
     <g id="text_4">
      <!-- 7.5 -->
      <defs>
       <path d="M 8.203125 72.90625 
L 55.078125 72.90625 
L 55.078125 68.703125 
L 28.609375 0 
L 18.3125 0 
L 43.21875 64.59375 
L 8.203125 64.59375 
z
" id="DejaVuSans-55"/>
      </defs>
      <g transform="translate(145.648438 360.198437)scale(0.1 -0.1)">
       <use xlink:href="#DejaVuSans-55"/>
       <use x="63.623047" xlink:href="#DejaVuSans-46"/>
       <use x="95.410156" xlink:href="#DejaVuSans-53"/>
      </g>
     </g>
    </g>
    <g id="xtick_5">
     <g id="line2d_9">
      <path clip-path="url(#p27fa53471c)" d="M 204.8 345.6 
L 204.8 0 
" style="fill:none;stroke:#b0b0b0;stroke-linecap:square;stroke-width:0.8;"/>
     </g>
     <g id="line2d_10">
      <g>
       <use style="stroke:#000000;stroke-width:0.8;" x="204.8" xlink:href="#m6a4f89c047" y="345.6"/>
      </g>
     </g>
     <g id="text_5">
      <!-- 10.0 -->
      <defs>
       <path d="M 12.40625 8.296875 
L 28.515625 8.296875 
L 28.515625 63.921875 
L 10.984375 60.40625 
L 10.984375 69.390625 
L 28.421875 72.90625 
L 38.28125 72.90625 
L 38.28125 8.296875 
L 54.390625 8.296875 
L 54.390625 0 
L 12.40625 0 
z
" id="DejaVuSans-49"/>
      </defs>
      <g transform="translate(193.667188 360.198437)scale(0.1 -0.1)">
       <use xlink:href="#DejaVuSans-49"/>
       <use x="63.623047" xlink:href="#DejaVuSans-48"/>
       <use x="127.246094" xlink:href="#DejaVuSans-46"/>
       <use x="159.033203" xlink:href="#DejaVuSans-48"/>
      </g>
     </g>
    </g>
    <g id="xtick_6">
     <g id="line2d_11">
      <path clip-path="url(#p27fa53471c)" d="M 256 345.6 
L 256 0 
" style="fill:none;stroke:#b0b0b0;stroke-linecap:square;stroke-width:0.8;"/>
     </g>
     <g id="line2d_12">
      <g>
       <use style="stroke:#000000;stroke-width:0.8;" x="256" xlink:href="#m6a4f89c047" y="345.6"/>
      </g>
     </g>
     <g id="text_6">
      <!-- 12.5 -->
      <g transform="translate(244.867188 360.198437)scale(0.1 -0.1)">
       <use xlink:href="#DejaVuSans-49"/>
       <use x="63.623047" xlink:href="#DejaVuSans-50"/>
       <use x="127.246094" xlink:href="#DejaVuSans-46"/>
       <use x="159.033203" xlink:href="#DejaVuSans-53"/>
      </g>
     </g>
    </g>
    <g id="xtick_7">
     <g id="line2d_13">
      <path clip-path="url(#p27fa53471c)" d="M 307.2 345.6 
L 307.2 0 
" style="fill:none;stroke:#b0b0b0;stroke-linecap:square;stroke-width:0.8;"/>
     </g>
     <g id="line2d_14">
      <g>
       <use style="stroke:#000000;stroke-width:0.8;" x="307.2" xlink:href="#m6a4f89c047" y="345.6"/>
      </g>
     </g>
     <g id="text_7">
      <!-- 15.0 -->
      <g transform="translate(296.067187 360.198437)scale(0.1 -0.1)">
       <use xlink:href="#DejaVuSans-49"/>
       <use x="63.623047" xlink:href="#DejaVuSans-53"/>
       <use x="127.246094" xlink:href="#DejaVuSans-46"/>
       <use x="159.033203" xlink:href="#DejaVuSans-48"/>
      </g>
     </g>
    </g>
    <g id="xtick_8">
     <g id="line2d_15">
      <path clip-path="url(#p27fa53471c)" d="M 358.4 345.6 
L 358.4 0 
" style="fill:none;stroke:#b0b0b0;stroke-linecap:square;stroke-width:0.8;"/>
     </g>
     <g id="line2d_16">
      <g>
       <use style="stroke:#000000;stroke-width:0.8;" x="358.4" xlink:href="#m6a4f89c047" y="345.6"/>
      </g>
     </g>
     <g id="text_8">
      <!-- 17.5 -->
      <g transform="translate(347.267188 360.198437)scale(0.1 -0.1)">
       <use xlink:href="#DejaVuSans-49"/>
       <use x="63.623047" xlink:href="#DejaVuSans-55"/>
       <use x="127.246094" xlink:href="#DejaVuSans-46"/>
       <use x="159.033203" xlink:href="#DejaVuSans-53"/>
      </g>
     </g>
    </g>
    <g id="xtick_9">
     <g id="line2d_17">
      <path clip-path="url(#p27fa53471c)" d="M 409.6 345.6 
L 409.6 0 
" style="fill:none;stroke:#b0b0b0;stroke-linecap:square;stroke-width:0.8;"/>
     </g>
     <g id="line2d_18">
      <g>
       <use style="stroke:#000000;stroke-width:0.8;" x="409.6" xlink:href="#m6a4f89c047" y="345.6"/>
      </g>
     </g>
     <g id="text_9">
      <!-- 20.0 -->
      <g transform="translate(398.467188 360.198437)scale(0.1 -0.1)">
       <use xlink:href="#DejaVuSans-50"/>
       <use x="63.623047" xlink:href="#DejaVuSans-48"/>
       <use x="127.246094" xlink:href="#DejaVuSans-46"/>
       <use x="159.033203" xlink:href="#DejaVuSans-48"/>
      </g>
     </g>
    </g>
    <g id="xtick_10">
     <g id="line2d_19">
      <path clip-path="url(#p27fa53471c)" d="M 460.8 345.6 
L 460.8 0 
" style="fill:none;stroke:#b0b0b0;stroke-linecap:square;stroke-width:0.8;"/>
     </g>
     <g id="line2d_20">
      <g>
       <use style="stroke:#000000;stroke-width:0.8;" x="460.8" xlink:href="#m6a4f89c047" y="345.6"/>
      </g>
     </g>
     <g id="text_10">
      <!-- 22.5 -->
      <g transform="translate(449.667188 360.198437)scale(0.1 -0.1)">
       <use xlink:href="#DejaVuSans-50"/>
       <use x="63.623047" xlink:href="#DejaVuSans-50"/>
       <use x="127.246094" xlink:href="#DejaVuSans-46"/>
       <use x="159.033203" xlink:href="#DejaVuSans-53"/>
      </g>
     </g>
    </g>
    <g id="text_11">
     <!-- x[m] -->
     <defs>
      <path d="M 54.890625 54.6875 
L 35.109375 28.078125 
L 55.90625 0 
L 45.3125 0 
L 29.390625 21.484375 
L 13.484375 0 
L 2.875 0 
L 24.125 28.609375 
L 4.6875 54.6875 
L 15.28125 54.6875 
L 29.78125 35.203125 
L 44.28125 54.6875 
z
" id="DejaVuSans-120"/>
      <path d="M 8.59375 75.984375 
L 29.296875 75.984375 
L 29.296875 69 
L 17.578125 69 
L 17.578125 -6.203125 
L 29.296875 -6.203125 
L 29.296875 -13.1875 
L 8.59375 -13.1875 
z
" id="DejaVuSans-91"/>
      <path d="M 52 44.1875 
Q 55.375 50.25 60.0625 53.125 
Q 64.75 56 71.09375 56 
Q 79.640625 56 84.28125 50.015625 
Q 88.921875 44.046875 88.921875 33.015625 
L 88.921875 0 
L 79.890625 0 
L 79.890625 32.71875 
Q 79.890625 40.578125 77.09375 44.375 
Q 74.3125 48.1875 68.609375 48.1875 
Q 61.625 48.1875 57.5625 43.546875 
Q 53.515625 38.921875 53.515625 30.90625 
L 53.515625 0 
L 44.484375 0 
L 44.484375 32.71875 
Q 44.484375 40.625 41.703125 44.40625 
Q 38.921875 48.1875 33.109375 48.1875 
Q 26.21875 48.1875 22.15625 43.53125 
Q 18.109375 38.875 18.109375 30.90625 
L 18.109375 0 
L 9.078125 0 
L 9.078125 54.6875 
L 18.109375 54.6875 
L 18.109375 46.1875 
Q 21.1875 51.21875 25.484375 53.609375 
Q 29.78125 56 35.6875 56 
Q 41.65625 56 45.828125 52.96875 
Q 50 49.953125 52 44.1875 
z
" id="DejaVuSans-109"/>
      <path d="M 30.421875 75.984375 
L 30.421875 -13.1875 
L 9.71875 -13.1875 
L 9.71875 -6.203125 
L 21.390625 -6.203125 
L 21.390625 69 
L 9.71875 69 
L 9.71875 75.984375 
z
" id="DejaVuSans-93"/>
     </defs>
     <g transform="translate(218.66875 373.876562)scale(0.1 -0.1)">
      <use xlink:href="#DejaVuSans-120"/>
      <use x="59.179688" xlink:href="#DejaVuSans-91"/>
      <use x="98.193359" xlink:href="#DejaVuSans-109"/>
      <use x="195.605469" xlink:href="#DejaVuSans-93"/>
     </g>
    </g>
   </g>
   <g id="matplotlib.axis_2">
    <g id="ytick_1">
     <g id="line2d_21">
      <path clip-path="url(#p27fa53471c)" d="M 0 300.8 
L 460.8 300.8 
" style="fill:none;stroke:#b0b0b0;stroke-linecap:square;stroke-width:0.8;"/>
     </g>
     <g id="line2d_22">
      <defs>
       <path d="M 0 0 
L -3.5 0 
" id="m591c416745" style="stroke:#000000;stroke-width:0.8;"/>
      </defs>
      <g>
       <use style="stroke:#000000;stroke-width:0.8;" x="0" xlink:href="#m591c416745" y="300.8"/>
      </g>
     </g>
     <g id="text_12">
      <!-- 0.0 -->
      <g transform="translate(-22.903125 304.599219)scale(0.1 -0.1)">
       <use xlink:href="#DejaVuSans-48"/>
       <use x="63.623047" xlink:href="#DejaVuSans-46"/>
       <use x="95.410156" xlink:href="#DejaVuSans-48"/>
      </g>
     </g>
    </g>
    <g id="ytick_2">
     <g id="line2d_23">
      <path clip-path="url(#p27fa53471c)" d="M 0 249.6 
L 460.8 249.6 
" style="fill:none;stroke:#b0b0b0;stroke-linecap:square;stroke-width:0.8;"/>
     </g>
     <g id="line2d_24">
      <g>
       <use style="stroke:#000000;stroke-width:0.8;" x="0" xlink:href="#m591c416745" y="249.6"/>
      </g>
     </g>
     <g id="text_13">
      <!-- 2.5 -->
      <g transform="translate(-22.903125 253.399219)scale(0.1 -0.1)">
       <use xlink:href="#DejaVuSans-50"/>
       <use x="63.623047" xlink:href="#DejaVuSans-46"/>
       <use x="95.410156" xlink:href="#DejaVuSans-53"/>
      </g>
     </g>
    </g>
    <g id="ytick_3">
     <g id="line2d_25">
      <path clip-path="url(#p27fa53471c)" d="M 0 198.4 
L 460.8 198.4 
" style="fill:none;stroke:#b0b0b0;stroke-linecap:square;stroke-width:0.8;"/>
     </g>
     <g id="line2d_26">
      <g>
       <use style="stroke:#000000;stroke-width:0.8;" x="0" xlink:href="#m591c416745" y="198.4"/>
      </g>
     </g>
     <g id="text_14">
      <!-- 5.0 -->
      <g transform="translate(-22.903125 202.199219)scale(0.1 -0.1)">
       <use xlink:href="#DejaVuSans-53"/>
       <use x="63.623047" xlink:href="#DejaVuSans-46"/>
       <use x="95.410156" xlink:href="#DejaVuSans-48"/>
      </g>
     </g>
    </g>
    <g id="ytick_4">
     <g id="line2d_27">
      <path clip-path="url(#p27fa53471c)" d="M 0 147.2 
L 460.8 147.2 
" style="fill:none;stroke:#b0b0b0;stroke-linecap:square;stroke-width:0.8;"/>
     </g>
     <g id="line2d_28">
      <g>
       <use style="stroke:#000000;stroke-width:0.8;" x="0" xlink:href="#m591c416745" y="147.2"/>
      </g>
     </g>
     <g id="text_15">
      <!-- 7.5 -->
      <g transform="translate(-22.903125 150.999219)scale(0.1 -0.1)">
       <use xlink:href="#DejaVuSans-55"/>
       <use x="63.623047" xlink:href="#DejaVuSans-46"/>
       <use x="95.410156" xlink:href="#DejaVuSans-53"/>
      </g>
     </g>
    </g>
    <g id="ytick_5">
     <g id="line2d_29">
      <path clip-path="url(#p27fa53471c)" d="M 0 96 
L 460.8 96 
" style="fill:none;stroke:#b0b0b0;stroke-linecap:square;stroke-width:0.8;"/>
     </g>
     <g id="line2d_30">
      <g>
       <use style="stroke:#000000;stroke-width:0.8;" x="0" xlink:href="#m591c416745" y="96"/>
      </g>
     </g>
     <g id="text_16">
      <!-- 10.0 -->
      <g transform="translate(-29.265625 99.799219)scale(0.1 -0.1)">
       <use xlink:href="#DejaVuSans-49"/>
       <use x="63.623047" xlink:href="#DejaVuSans-48"/>
       <use x="127.246094" xlink:href="#DejaVuSans-46"/>
       <use x="159.033203" xlink:href="#DejaVuSans-48"/>
      </g>
     </g>
    </g>
    <g id="ytick_6">
     <g id="line2d_31">
      <path clip-path="url(#p27fa53471c)" d="M 0 44.8 
L 460.8 44.8 
" style="fill:none;stroke:#b0b0b0;stroke-linecap:square;stroke-width:0.8;"/>
     </g>
     <g id="line2d_32">
      <g>
       <use style="stroke:#000000;stroke-width:0.8;" x="0" xlink:href="#m591c416745" y="44.8"/>
      </g>
     </g>
     <g id="text_17">
      <!-- 12.5 -->
      <g transform="translate(-29.265625 48.599219)scale(0.1 -0.1)">
       <use xlink:href="#DejaVuSans-49"/>
       <use x="63.623047" xlink:href="#DejaVuSans-50"/>
       <use x="127.246094" xlink:href="#DejaVuSans-46"/>
       <use x="159.033203" xlink:href="#DejaVuSans-53"/>
      </g>
     </g>
    </g>
    <g id="text_18">
     <!-- y[m] -->
     <defs>
      <path d="M 32.171875 -5.078125 
Q 28.375 -14.84375 24.75 -17.8125 
Q 21.140625 -20.796875 15.09375 -20.796875 
L 7.90625 -20.796875 
L 7.90625 -13.28125 
L 13.1875 -13.28125 
Q 16.890625 -13.28125 18.9375 -11.515625 
Q 21 -9.765625 23.484375 -3.21875 
L 25.09375 0.875 
L 2.984375 54.6875 
L 12.5 54.6875 
L 29.59375 11.921875 
L 46.6875 54.6875 
L 56.203125 54.6875 
z
" id="DejaVuSans-121"/>
     </defs>
     <g transform="translate(-35.345312 184.53125)rotate(-90)scale(0.1 -0.1)">
      <use xlink:href="#DejaVuSans-121"/>
      <use x="59.179688" xlink:href="#DejaVuSans-91"/>
      <use x="98.193359" xlink:href="#DejaVuSans-109"/>
      <use x="195.605469" xlink:href="#DejaVuSans-93"/>
     </g>
    </g>
   </g>
   <g id="line2d_33">
    <path clip-path="url(#p27fa53471c)" d="M 366.43989 171.574018 
L 382.507733 191.488028 
L 390.701851 201.989908 
L 399.345172 213.463788 
L 405.580555 221.6001 
L 410.095092 227.155829 
L 414.120899 231.772656 
L 422.301259 240.915745 
L 424.820051 244.182897 
L 426.552568 246.774727 
L 428.030728 249.491067 
L 428.807175 251.367585 
L 429.372734 253.294173 
L 429.738203 255.269488 
L 430.007813 258.322004 
L 430.081831 262.554746 
L 429.978867 266.896227 
L 429.768708 269.024392 
L 429.386787 271.073047 
L 428.783622 273.003851 
L 427.909731 274.778461 
L 426.7169 276.35874 
L 425.205718 277.714522 
L 423.439841 278.825941 
L 421.487106 279.673811 
L 419.415349 280.238949 
L 417.290649 280.504719 
L 415.165641 280.47395 
L 413.086765 280.158454 
L 411.100423 279.570089 
L 409.253022 278.720711 
L 407.585624 277.623899 
L 406.09402 276.307799 
L 404.751197 274.8079 
L 403.529966 273.159743 
L 401.866629 270.487278 
L 395.066985 258.630434 
L 391.633897 253.586807 
L 386.846128 246.982599 
L 384.882053 244.614164 
L 383.395397 243.195465 
L 381.718331 241.969807 
L 379.882833 240.972392 
L 377.936617 240.234066 
L 375.927399 239.785675 
L 373.897541 239.639713 
L 366.665881 239.654212 
L 364.633739 239.301461 
L 362.705016 238.647659 
L 360.928117 237.644243 
L 359.323393 236.336217 
L 357.903012 234.795883 
L 356.679141 233.09555 
L 355.660087 231.302444 
L 354.824812 229.44516 
L 353.840953 226.562602 
L 352.849776 222.595273 
L 351.220128 215.553195 
L 350.259919 212.590594 
L 349.447513 210.662839 
L 348.473872 208.80792 
L 347.329991 207.070493 
L 346.00698 205.495367 
L 344.495948 204.127351 
L 342.795394 203.002458 
L 340.937885 202.116153 
L 338.965802 201.452216 
L 336.921527 200.994428 
L 334.847415 200.726541 
L 331.741735 200.612896 
L 323.553595 200.631383 
L 321.533607 200.389402 
L 319.528146 199.932548 
L 317.567109 199.234634 
L 315.703332 198.295599 
L 313.990373 197.116197 
L 312.481783 195.697184 
L 311.222196 194.049655 
L 310.22582 192.219956 
L 309.500387 190.26194 
L 309.053629 188.22946 
L 308.890445 186.174021 
L 308.985466 184.122018 
L 309.294987 182.084636 
L 310.065285 179.079981 
L 311.073921 176.158749 
L 313.952008 168.493512 
L 314.744442 165.526822 
L 315.090204 163.487629 
L 315.273454 161.412929 
L 315.288342 159.323787 
L 315.129017 157.24127 
L 314.789628 155.186446 
L 314.264327 153.180382 
L 313.547262 151.244143 
L 312.63712 149.395809 
L 311.549512 147.642307 
L 310.303994 145.987966 
L 308.920121 144.437116 
L 307.417449 142.994084 
L 304.983472 141.041168 
L 302.386984 139.351358 
L 299.658929 137.913476 
L 296.819663 136.708555 
L 293.889526 135.717615 
L 290.888862 134.92168 
L 287.838006 134.301833 
L 284.756464 133.852405 
L 281.661867 133.59744 
L 278.571591 133.565024 
L 275.503015 133.783246 
L 272.473514 134.280192 
L 269.501642 135.076679 
L 266.611446 136.159503 
L 263.828578 137.505521 
L 261.178606 139.091565 
L 258.677603 140.892007 
L 256.323761 142.87658 
L 254.113288 145.014503 
L 251.373211 148.051747 
L 248.810486 151.242833 
L 244.529268 157.006211 
L 240.809597 161.90804 
L 233.184115 171.542417 
L 227.179127 179.821196 
L 222.124164 186.355169 
L 220.676583 187.785482 
L 219.064586 189.010677 
L 217.279394 190.001077 
L 215.359653 190.769229 
L 213.347122 191.330449 
L 211.283558 191.700054 
L 209.209436 191.892294 
L 207.146546 191.905903 
L 205.102561 191.727896 
L 203.084807 191.344997 
L 201.101405 190.744453 
L 199.177529 189.92472 
L 197.354771 188.895049 
L 195.675395 187.665131 
L 194.18166 186.244655 
L 192.914224 184.643873 
L 191.876022 182.886281 
L 191.031784 181.008786 
L 190.048234 178.049769 
L 189.075858 174.022535 
L 185.903674 159.019877 
L 183.774537 150.057561 
L 181.393901 139.061321 
L 178.969127 126.975909 
L 178.383566 122.915281 
L 178.209885 119.853469 
L 178.2703 117.803829 
L 178.628251 114.734048 
L 179.267182 111.703152 
L 180.142091 108.748632 
L 181.208352 105.901809 
L 182.857941 102.206511 
L 186.015783 95.533815 
L 186.554485 93.536656 
L 186.62627 92.532228 
L 186.524984 91.527237 
L 186.226473 90.533328 
L 185.735354 89.600479 
L 185.063789 88.788712 
L 184.224018 88.157941 
L 183.242948 87.748425 
L 182.178944 87.558262 
L 181.094441 87.580099 
L 180.051872 87.806583 
L 179.113474 88.230293 
L 178.314152 88.834615 
L 177.633712 89.584389 
L 176.522233 91.370763 
L 172.697496 98.726324 
L 164.763192 113.037918 
L 162.605075 116.514361 
L 160.833902 119.026111 
L 158.884231 121.420978 
L 156.728675 123.650181 
L 155.175546 125.007032 
L 153.529162 126.233472 
L 151.789196 127.306372 
L 149.958679 128.210776 
L 148.051968 128.959311 
L 145.085665 129.830186 
L 142.042109 130.454062 
L 137.951136 131.000284 
L 133.854643 131.27728 
L 129.75569 131.31998 
L 125.657106 131.163111 
L 120.538708 130.739291 
L 115.433676 130.112983 
L 110.370588 129.248438 
L 106.375412 128.334786 
L 102.450121 127.182021 
L 98.612825 125.758656 
L 94.87642 124.06898 
L 91.252157 122.12859 
L 87.751418 119.952993 
L 84.396101 117.55057 
L 81.998914 115.597692 
L 79.723476 113.513006 
L 77.587333 111.294418 
L 75.608027 108.939833 
L 73.797181 106.451528 
L 71.609502 102.970554 
L 69.140985 98.465767 
L 65.060614 90.323896 
L 62.055064 83.907636 
L 59.587033 78.110104 
L 57.106795 72.035126 
L 55.668377 69.181866 
L 54.566104 67.457305 
L 53.313585 65.930528 
L 51.880322 64.649274 
L 50.23835 63.658525 
L 48.399892 62.959613 
L 46.409302 62.518969 
L 44.311833 62.302046 
L 42.152737 62.274298 
L 38.897534 62.51181 
L 35.751767 62.987553 
L 32.761088 63.699663 
L 30.836818 64.346786 
L 28.955661 65.161472 
L 27.111692 66.166916 
L 25.345139 67.364873 
L 23.722046 68.745104 
L 22.30874 70.297239 
L 21.17155 72.010908 
L 20.376729 73.875712 
L 19.963759 75.870166 
L 19.905745 77.945312 
L 20.165683 80.048003 
L 20.706568 82.125096 
L 21.491396 84.123444 
L 22.483189 85.990438 
L 23.646523 87.70431 
L 24.948347 89.290339 
L 27.088883 91.49364 
L 30.894739 94.930725 
L 35.602578 98.889321 
L 40.441458 102.681353 
L 45.40121 106.309778 
L 51.326697 110.340876 
L 57.385157 114.171171 
L 63.557917 117.826707 
L 69.831582 121.319448 
L 76.209149 124.617092 
L 81.763003 127.257409 
L 87.401599 129.698673 
L 93.128132 131.917209 
L 99.898909 134.268842 
L 126.106998 143.071293 
L 139.590742 147.942099 
L 153.978626 153.390648 
L 168.38315 158.801343 
L 177.084654 161.828547 
L 183.904161 163.985335 
L 189.797003 165.652572 
L 194.773634 166.836509 
L 198.836304 167.563356 
L 201.926583 167.908339 
L 205.012625 167.979907 
L 207.047165 167.827682 
L 209.049237 167.482524 
L 211.010537 166.938375 
L 212.927503 166.21628 
L 214.796859 165.338943 
L 217.504463 163.781526 
L 220.086527 162.002525 
L 222.534736 160.074729 
L 225.617432 157.341188 
L 229.263875 153.746792 
L 251.577736 130.895088 
L 255.247141 127.445434 
L 258.146497 125.021328 
L 271.683856 114.573741 
L 272.644722 114.079442 
L 273.534929 113.775615 
L 274.335775 113.701227 
L 275.028563 113.895247 
L 275.594621 114.396591 
L 276.035115 115.207704 
L 277.631647 119.51787 
L 278.16211 120.41628 
L 278.782683 121.091761 
L 279.510602 121.470366 
L 280.348828 121.524918 
L 281.27441 121.313142 
L 283.284879 120.357394 
L 287.279716 118.061782 
L 290.048514 116.777816 
L 292.804802 115.778505 
L 295.706665 114.960311 
L 298.750102 114.346172 
L 301.866305 114.009587 
L 303.950137 113.975756 
L 306.015215 114.119826 
L 308.041502 114.462653 
L 310.018876 115.001306 
L 311.947535 115.7081 
L 314.750667 117.020466 
L 317.448009 118.549194 
L 320.042123 120.224952 
L 323.345639 122.657289 
L 326.478406 125.288007 
L 329.449303 128.08705 
L 332.278966 131.027241 
L 335.657177 134.861599 
L 339.545352 139.629598 
L 353.617922 157.320963 
L 359.029527 163.472011 
L 365.934089 171.025444 
L 365.934089 171.025444 
" style="fill:none;stroke:#0000ff;stroke-linecap:square;stroke-width:1.5;"/>
   </g>
   <g id="line2d_34">
    <path clip-path="url(#p27fa53471c)" d="M 366.43989 171.574018 
L 376.22844 183.443039 
L 379.298166 187.042977 
L 381.67795 189.986743 
L 383.841679 192.679853 
L 386.97469 196.833849 
L 390.02225 200.3977 
L 394.007923 205.830744 
L 396.561834 208.848596 
L 399.693379 213.441384 
L 401.408901 215.478603 
L 404.130451 219.315343 
L 405.857994 221.266402 
L 408.600724 224.931999 
L 411.144642 227.61546 
L 413.545368 230.735427 
L 415.893526 232.910454 
L 418.133772 235.525514 
L 419.997848 237.339123 
L 422.089478 240.009527 
L 423.370129 241.127414 
L 424.197002 242.281146 
L 426.070897 245.031151 
L 427.908985 247.478285 
L 428.358965 248.483027 
L 429.510166 251.400201 
L 430.473182 253.482505 
L 430.61027 254.571242 
L 430.802622 256.993667 
L 431.273324 259.80039 
L 431.086522 261.077498 
L 430.77567 262.97541 
L 430.934769 264.111232 
L 431.185256 265.868945 
L 431.098361 266.64605 
L 430.515843 269.513397 
L 430.474348 271.043446 
L 430.098766 272.386169 
L 429.131028 274.71154 
L 428.096036 276.940353 
L 427.519417 277.571419 
L 424.514075 280.005006 
L 423.372865 280.619765 
L 421.142653 281.445032 
L 418.19496 282.455356 
L 417.126999 282.510519 
L 411.348973 282.121853 
L 410.394457 281.870348 
L 408.942666 281.227456 
L 406.222716 279.759574 
L 404.624549 278.662466 
L 403.850206 277.867133 
L 400.529762 273.756559 
L 399.683343 271.629759 
L 398.971606 270.174077 
L 396.179017 265.471886 
L 395.124088 263.177089 
L 394.262012 261.98522 
L 393.08469 260.457314 
L 392.318539 258.722479 
L 391.670819 257.436764 
L 390.970656 256.520787 
L 389.00711 254.173205 
L 386.649582 250.316833 
L 385.169 248.553701 
L 384.076924 246.743071 
L 383.222764 245.535704 
L 382.146157 244.529006 
L 380.290936 243.131964 
L 378.886051 242.335555 
L 377.076927 241.563721 
L 375.621356 241.184596 
L 373.972014 241.013125 
L 372.292431 241.015614 
L 365.893084 241.250683 
L 364.663557 240.960947 
L 362.724445 240.277009 
L 359.580672 238.954643 
L 358.644151 238.122377 
L 356.566052 236.075274 
L 355.59629 235.100448 
L 355.105586 234.233828 
L 353.878961 231.730752 
L 352.882217 230.025035 
L 352.634155 228.933961 
L 352.248048 227.354247 
L 351.117871 224.024357 
L 350.399886 220.227931 
L 349.091668 214.286447 
L 348.59917 212.525162 
L 347.96317 211.100921 
L 346.203912 207.999533 
L 345.00506 206.222028 
L 344.018911 205.198574 
L 343.009233 204.465302 
L 340.748215 203.179112 
L 338.771135 202.251334 
L 337.306346 201.835276 
L 335.224998 201.518677 
L 331.426595 201.180714 
L 328.315004 201.130061 
L 322.5099 201.235327 
L 320.409076 200.851747 
L 316.453029 199.858898 
L 315.583935 199.466856 
L 314.239392 198.466458 
L 312.852337 197.451842 
L 311.652903 196.587506 
L 311.172157 195.959897 
L 310.041287 194.155638 
L 309.008764 192.791238 
L 308.718081 192.00024 
L 307.813883 188.677828 
L 307.44855 187.512824 
L 307.505374 185.66988 
L 307.495119 183.64421 
L 307.549938 182.380561 
L 307.878046 181.262427 
L 308.660212 178.851979 
L 309.303763 176.016769 
L 310.092426 174.372577 
L 311.201145 172.102006 
L 311.887652 170.056748 
L 312.642687 168.069005 
L 313.585719 165.635261 
L 313.763036 164.211733 
L 314.101392 161.401502 
L 314.365335 159.116567 
L 314.264243 157.606281 
L 313.666073 154.072537 
L 313.190722 151.832385 
L 312.747068 150.872587 
L 309.934244 146.251653 
L 308.93824 145.228225 
L 305.229114 141.785654 
L 304.021131 140.814704 
L 298.830152 137.644452 
L 296.995438 137.094914 
L 294.954577 136.501054 
L 289.587971 134.476122 
L 287.332776 134.068908 
L 284.213226 133.769599 
L 274.905149 133.200884 
L 273.870523 133.41847 
L 271.824671 133.973609 
L 269.038734 134.344066 
L 267.241017 135.097409 
L 261.540782 137.779692 
L 258.571267 139.851449 
L 254.619164 142.786829 
L 253.236549 144.137959 
L 247.654259 150.517946 
L 246.275766 152.46247 
L 244.189119 155.535681 
L 242.057521 158.154645 
L 239.605151 161.529504 
L 233.731055 168.628371 
L 230.311643 173.336018 
L 223.549329 182.846889 
L 219.073798 188.193974 
L 217.914114 188.839415 
L 212.742081 191.244289 
L 211.468593 191.308004 
L 210.291298 191.379641 
L 207.708885 191.771917 
L 206.06357 191.623995 
L 200.752309 190.775882 
L 199.173401 190.231922 
L 197.796819 189.52409 
L 196.024538 188.360021 
L 193.969449 186.731442 
L 192.777393 185.519096 
L 192.112537 184.577231 
L 190.912679 182.348955 
L 189.651563 179.635822 
L 189.146209 177.947558 
L 187.627151 171.577115 
L 185.481108 160.549292 
L 184.398646 156.179243 
L 183.199463 150.906849 
L 182.485196 147.655343 
L 181.307822 142.984624 
L 180.444198 138.307458 
L 179.744904 134.612115 
L 178.434955 128.429447 
L 177.575366 124.054269 
L 177.270535 122.250879 
L 177.258019 120.709215 
L 177.26366 117.511471 
L 177.347533 115.862136 
L 177.820999 113.120715 
L 178.699872 108.577554 
L 179.298658 106.998529 
L 182.995943 98.851182 
L 184.413432 96.360732 
L 185.035825 94.549868 
L 185.925692 90.954481 
L 185.909328 90.097173 
L 185.665317 89.310259 
L 185.212568 88.6183 
L 184.856311 88.27413 
L 183.294029 87.249258 
L 182.391084 86.8761 
L 181.487222 86.750417 
L 180.316676 86.873279 
L 178.471507 87.336977 
L 177.419541 87.817507 
L 176.753048 88.422572 
L 176.026845 89.425868 
L 174.762005 91.656443 
L 173.692018 93.902603 
L 172.492919 96.431096 
L 170.028607 100.605098 
L 169.316086 102.205029 
L 168.567945 103.196081 
L 167.894942 104.146061 
L 167.142764 105.705739 
L 166.161448 107.761746 
L 164.271978 111.041379 
L 163.384718 113.134457 
L 162.694713 114.019624 
L 161.488608 115.491893 
L 159.63687 118.599057 
L 158.095542 120.324737 
L 156.334596 122.597285 
L 155.197991 123.638393 
L 153.067689 125.178481 
L 149.786344 127.371274 
L 148.360826 127.853549 
L 145.497869 128.732179 
L 143.10435 129.554385 
L 141.575039 129.692988 
L 139.500539 129.846752 
L 135.230778 130.500837 
L 131.194178 130.500844 
L 129.277197 130.730134 
L 127.982838 130.517145 
L 126.416431 130.251785 
L 125.386302 130.335968 
L 122.938159 130.603192 
L 118.989213 130.114251 
L 117.392182 130.044205 
L 116.037601 129.711745 
L 114.341342 129.306329 
L 110.614825 128.885211 
L 105.845094 127.670336 
L 103.476665 127.131135 
L 101.406599 126.376658 
L 97.153869 124.782201 
L 94.661291 123.822168 
L 93.127164 122.986409 
L 81.908668 116.061131 
L 80.931715 115.299087 
L 79.477585 113.790325 
L 77.596366 111.834325 
L 75.568658 109.82244 
L 74.409157 108.199582 
L 72.28989 105.159663 
L 70.989122 103.269624 
L 70.081319 101.517223 
L 68.952428 99.359223 
L 66.784124 95.567894 
L 64.622847 90.943736 
L 62.968797 87.962658 
L 60.904645 83.188673 
L 60.186299 81.862446 
L 59.688208 80.025497 
L 59.297348 78.977662 
L 57.594233 75.469152 
L 56.572595 72.34194 
L 55.678814 70.630982 
L 52.739982 65.837492 
L 52.040355 65.111397 
L 51.079973 64.485572 
L 47.790907 62.825651 
L 46.773997 62.557834 
L 45.163894 62.397119 
L 41.421082 62.350612 
L 35.018829 62.494946 
L 33.765165 62.831568 
L 31.371334 63.679976 
L 29.516596 64.062002 
L 28.584127 64.61169 
L 27.125908 65.455305 
L 24.599006 66.656493 
L 23.885816 67.405426 
L 22.55381 69.073002 
L 20.972878 70.463968 
L 20.462353 71.287549 
L 19.841316 72.821644 
L 18.604304 76.246808 
L 18.695717 77.402038 
L 19.015258 80.212437 
L 19.139556 81.597901 
L 19.470797 82.511191 
L 21.102675 86.200718 
L 21.591784 87.406593 
L 22.090655 88.140152 
L 22.387304 88.325373 
L 22.722462 88.904395 
L 25.017093 91.342646 
L 27.7082 94.008671 
L 35.232136 100.453027 
L 41.121422 105.023963 
L 42.308606 105.886767 
L 45.169868 107.697047 
L 47.827336 109.767151 
L 62.658309 118.765273 
L 64.911989 120.057746 
L 69.616389 122.845755 
L 72.440532 124.204108 
L 75.683853 125.778183 
L 79.665431 127.800862 
L 84.336405 129.787095 
L 87.727675 131.418141 
L 89.997757 132.165508 
L 92.835011 133.125517 
L 98.01544 135.083744 
L 103.3477 136.694068 
L 106.378567 137.612987 
L 109.766831 138.710431 
L 114.208676 140.102646 
L 125.912147 144.014857 
L 129.384103 145.122006 
L 134.762215 147.045271 
L 137.31768 147.865006 
L 140.045699 149.057727 
L 142.191323 149.984826 
L 144.278126 150.588891 
L 146.69303 151.311518 
L 148.794749 152.271221 
L 151.057776 153.154094 
L 155.141682 154.610543 
L 161.389489 157.067795 
L 165.473855 158.604949 
L 168.995107 159.909413 
L 178.62774 163.100362 
L 180.954571 163.918283 
L 183.640057 164.857845 
L 185.805175 165.312943 
L 188.236136 165.848259 
L 192.411109 167.137916 
L 201.773654 168.996851 
L 205.050164 169.090323 
L 208.066253 169.019818 
L 209.545821 168.784156 
L 211.108993 168.269264 
L 213.579274 167.400687 
L 215.974809 166.635337 
L 216.861348 166.05321 
L 218.91663 164.557591 
L 221.09827 163.364872 
L 227.338728 158.16086 
L 229.566639 155.74958 
L 231.910137 153.637086 
L 235.359359 149.778132 
L 237.437839 147.876308 
L 242.710993 142.419178 
L 245.428569 139.521321 
L 247.527682 137.405278 
L 249.868 135.06718 
L 252.97662 131.823978 
L 254.706895 130.174554 
L 255.20386 129.940612 
L 255.703533 129.228244 
L 259.900285 125.400095 
L 261.478267 124.199732 
L 264.822541 121.796297 
L 272.182427 115.880891 
L 274.149919 114.519975 
L 275.019066 114.129846 
L 275.797928 114.013671 
L 276.591862 114.108999 
L 277.328876 114.411212 
L 277.978824 114.917582 
L 278.491525 115.630905 
L 278.718947 116.195284 
L 279.057876 117.748963 
L 279.504885 119.904136 
L 279.863434 120.591606 
L 280.401447 121.174918 
L 281.085707 121.600242 
L 281.862109 121.826537 
L 282.664699 121.835597 
L 283.448937 121.626105 
L 284.269197 121.135647 
L 286.738896 119.336538 
L 288.576189 118.695101 
L 289.655485 118.226571 
L 292.552832 116.637507 
L 294.20864 116.290507 
L 295.83323 115.907212 
L 298.360023 115.099725 
L 299.735268 115.047663 
L 301.312993 114.959525 
L 303.935839 114.614112 
L 305.347294 114.789955 
L 311.47425 116.012058 
L 313.104953 116.957171 
L 314.22651 117.460963 
L 316.290886 118.362961 
L 317.641775 119.421734 
L 318.763563 120.217108 
L 321.355612 121.692636 
L 323.749746 123.761433 
L 326.059758 125.352593 
L 326.964622 126.397817 
L 328.036429 127.593736 
L 329.445625 128.535491 
L 330.124306 129.094404 
L 331.128415 130.371212 
L 332.180773 131.623422 
L 335.13071 134.57873 
L 337.344064 137.536623 
L 339.812703 140.241487 
L 342.182672 143.560578 
L 343.360562 144.762739 
L 344.31563 146.265679 
L 345.365251 147.852186 
L 347.850781 150.832437 
L 355.273612 160.020165 
L 359.079594 164.245289 
L 361.371561 166.927725 
L 365.87828 171.92964 
L 365.87828 171.92964 
" style="fill:none;stroke:#008000;stroke-dasharray:5.55,2.4;stroke-dashoffset:0;stroke-width:1.5;"/>
   </g>
   <g id="patch_3">
    <path d="M 0 345.6 
L 0 0 
" style="fill:none;stroke:#000000;stroke-linecap:square;stroke-linejoin:miter;stroke-width:0.8;"/>
   </g>
   <g id="patch_4">
    <path d="M 460.8 345.6 
L 460.8 0 
" style="fill:none;stroke:#000000;stroke-linecap:square;stroke-linejoin:miter;stroke-width:0.8;"/>
   </g>
   <g id="patch_5">
    <path d="M 0 345.6 
L 460.8 345.6 
" style="fill:none;stroke:#000000;stroke-linecap:square;stroke-linejoin:miter;stroke-width:0.8;"/>
   </g>
   <g id="patch_6">
    <path d="M 0 0 
L 460.8 0 
" style="fill:none;stroke:#000000;stroke-linecap:square;stroke-linejoin:miter;stroke-width:0.8;"/>
   </g>
   <g id="legend_1">
    <g id="patch_7">
     <path d="M 370.976562 37.35625 
L 453.8 37.35625 
Q 455.8 37.35625 455.8 35.35625 
L 455.8 7 
Q 455.8 5 453.8 5 
L 370.976562 5 
Q 368.976562 5 368.976562 7 
L 368.976562 35.35625 
Q 368.976562 37.35625 370.976562 37.35625 
z
" style="fill:#ffffff;opacity:0.8;stroke:#cccccc;stroke-linejoin:miter;"/>
    </g>
    <g id="line2d_35">
     <path d="M 372.976562 13.098437 
L 392.976562 13.098437 
" style="fill:none;stroke:#0000ff;stroke-linecap:square;stroke-width:1.5;"/>
    </g>
    <g id="line2d_36"/>
    <g id="text_19">
     <!-- Trajectory -->
     <defs>
      <path d="M -0.296875 72.90625 
L 61.375 72.90625 
L 61.375 64.59375 
L 35.5 64.59375 
L 35.5 0 
L 25.59375 0 
L 25.59375 64.59375 
L -0.296875 64.59375 
z
" id="DejaVuSans-84"/>
      <path d="M 41.109375 46.296875 
Q 39.59375 47.171875 37.8125 47.578125 
Q 36.03125 48 33.890625 48 
Q 26.265625 48 22.1875 43.046875 
Q 18.109375 38.09375 18.109375 28.8125 
L 18.109375 0 
L 9.078125 0 
L 9.078125 54.6875 
L 18.109375 54.6875 
L 18.109375 46.1875 
Q 20.953125 51.171875 25.484375 53.578125 
Q 30.03125 56 36.53125 56 
Q 37.453125 56 38.578125 55.875 
Q 39.703125 55.765625 41.0625 55.515625 
z
" id="DejaVuSans-114"/>
      <path d="M 34.28125 27.484375 
Q 23.390625 27.484375 19.1875 25 
Q 14.984375 22.515625 14.984375 16.5 
Q 14.984375 11.71875 18.140625 8.90625 
Q 21.296875 6.109375 26.703125 6.109375 
Q 34.1875 6.109375 38.703125 11.40625 
Q 43.21875 16.703125 43.21875 25.484375 
L 43.21875 27.484375 
z
M 52.203125 31.203125 
L 52.203125 0 
L 43.21875 0 
L 43.21875 8.296875 
Q 40.140625 3.328125 35.546875 0.953125 
Q 30.953125 -1.421875 24.3125 -1.421875 
Q 15.921875 -1.421875 10.953125 3.296875 
Q 6 8.015625 6 15.921875 
Q 6 25.140625 12.171875 29.828125 
Q 18.359375 34.515625 30.609375 34.515625 
L 43.21875 34.515625 
L 43.21875 35.40625 
Q 43.21875 41.609375 39.140625 45 
Q 35.0625 48.390625 27.6875 48.390625 
Q 23 48.390625 18.546875 47.265625 
Q 14.109375 46.140625 10.015625 43.890625 
L 10.015625 52.203125 
Q 14.9375 54.109375 19.578125 55.046875 
Q 24.21875 56 28.609375 56 
Q 40.484375 56 46.34375 49.84375 
Q 52.203125 43.703125 52.203125 31.203125 
z
" id="DejaVuSans-97"/>
      <path d="M 9.421875 54.6875 
L 18.40625 54.6875 
L 18.40625 -0.984375 
Q 18.40625 -11.421875 14.421875 -16.109375 
Q 10.453125 -20.796875 1.609375 -20.796875 
L -1.8125 -20.796875 
L -1.8125 -13.1875 
L 0.59375 -13.1875 
Q 5.71875 -13.1875 7.5625 -10.8125 
Q 9.421875 -8.453125 9.421875 -0.984375 
z
M 9.421875 75.984375 
L 18.40625 75.984375 
L 18.40625 64.59375 
L 9.421875 64.59375 
z
" id="DejaVuSans-106"/>
      <path d="M 56.203125 29.59375 
L 56.203125 25.203125 
L 14.890625 25.203125 
Q 15.484375 15.921875 20.484375 11.0625 
Q 25.484375 6.203125 34.421875 6.203125 
Q 39.59375 6.203125 44.453125 7.46875 
Q 49.3125 8.734375 54.109375 11.28125 
L 54.109375 2.78125 
Q 49.265625 0.734375 44.1875 -0.34375 
Q 39.109375 -1.421875 33.890625 -1.421875 
Q 20.796875 -1.421875 13.15625 6.1875 
Q 5.515625 13.8125 5.515625 26.8125 
Q 5.515625 40.234375 12.765625 48.109375 
Q 20.015625 56 32.328125 56 
Q 43.359375 56 49.78125 48.890625 
Q 56.203125 41.796875 56.203125 29.59375 
z
M 47.21875 32.234375 
Q 47.125 39.59375 43.09375 43.984375 
Q 39.0625 48.390625 32.421875 48.390625 
Q 24.90625 48.390625 20.390625 44.140625 
Q 15.875 39.890625 15.1875 32.171875 
z
" id="DejaVuSans-101"/>
      <path d="M 48.78125 52.59375 
L 48.78125 44.1875 
Q 44.96875 46.296875 41.140625 47.34375 
Q 37.3125 48.390625 33.40625 48.390625 
Q 24.65625 48.390625 19.8125 42.84375 
Q 14.984375 37.3125 14.984375 27.296875 
Q 14.984375 17.28125 19.8125 11.734375 
Q 24.65625 6.203125 33.40625 6.203125 
Q 37.3125 6.203125 41.140625 7.25 
Q 44.96875 8.296875 48.78125 10.40625 
L 48.78125 2.09375 
Q 45.015625 0.34375 40.984375 -0.53125 
Q 36.96875 -1.421875 32.421875 -1.421875 
Q 20.0625 -1.421875 12.78125 6.34375 
Q 5.515625 14.109375 5.515625 27.296875 
Q 5.515625 40.671875 12.859375 48.328125 
Q 20.21875 56 33.015625 56 
Q 37.15625 56 41.109375 55.140625 
Q 45.0625 54.296875 48.78125 52.59375 
z
" id="DejaVuSans-99"/>
      <path d="M 18.3125 70.21875 
L 18.3125 54.6875 
L 36.8125 54.6875 
L 36.8125 47.703125 
L 18.3125 47.703125 
L 18.3125 18.015625 
Q 18.3125 11.328125 20.140625 9.421875 
Q 21.96875 7.515625 27.59375 7.515625 
L 36.8125 7.515625 
L 36.8125 0 
L 27.59375 0 
Q 17.1875 0 13.234375 3.875 
Q 9.28125 7.765625 9.28125 18.015625 
L 9.28125 47.703125 
L 2.6875 47.703125 
L 2.6875 54.6875 
L 9.28125 54.6875 
L 9.28125 70.21875 
z
" id="DejaVuSans-116"/>
      <path d="M 30.609375 48.390625 
Q 23.390625 48.390625 19.1875 42.75 
Q 14.984375 37.109375 14.984375 27.296875 
Q 14.984375 17.484375 19.15625 11.84375 
Q 23.34375 6.203125 30.609375 6.203125 
Q 37.796875 6.203125 41.984375 11.859375 
Q 46.1875 17.53125 46.1875 27.296875 
Q 46.1875 37.015625 41.984375 42.703125 
Q 37.796875 48.390625 30.609375 48.390625 
z
M 30.609375 56 
Q 42.328125 56 49.015625 48.375 
Q 55.71875 40.765625 55.71875 27.296875 
Q 55.71875 13.875 49.015625 6.21875 
Q 42.328125 -1.421875 30.609375 -1.421875 
Q 18.84375 -1.421875 12.171875 6.21875 
Q 5.515625 13.875 5.515625 27.296875 
Q 5.515625 40.765625 12.171875 48.375 
Q 18.84375 56 30.609375 56 
z
" id="DejaVuSans-111"/>
     </defs>
     <g transform="translate(400.976562 16.598437)scale(0.1 -0.1)">
      <use xlink:href="#DejaVuSans-84"/>
      <use x="60.865234" xlink:href="#DejaVuSans-114"/>
      <use x="101.978516" xlink:href="#DejaVuSans-97"/>
      <use x="163.257812" xlink:href="#DejaVuSans-106"/>
      <use x="191.041016" xlink:href="#DejaVuSans-101"/>
      <use x="252.564453" xlink:href="#DejaVuSans-99"/>
      <use x="307.544922" xlink:href="#DejaVuSans-116"/>
      <use x="346.753906" xlink:href="#DejaVuSans-111"/>
      <use x="407.935547" xlink:href="#DejaVuSans-114"/>
      <use x="449.048828" xlink:href="#DejaVuSans-121"/>
     </g>
    </g>
    <g id="line2d_37">
     <path d="M 372.976562 27.776563 
L 392.976562 27.776563 
" style="fill:none;stroke:#008000;stroke-dasharray:5.55,2.4;stroke-dashoffset:0;stroke-width:1.5;"/>
    </g>
    <g id="line2d_38"/>
    <g id="text_20">
     <!-- Tracking -->
     <defs>
      <path d="M 9.078125 75.984375 
L 18.109375 75.984375 
L 18.109375 31.109375 
L 44.921875 54.6875 
L 56.390625 54.6875 
L 27.390625 29.109375 
L 57.625 0 
L 45.90625 0 
L 18.109375 26.703125 
L 18.109375 0 
L 9.078125 0 
z
" id="DejaVuSans-107"/>
      <path d="M 9.421875 54.6875 
L 18.40625 54.6875 
L 18.40625 0 
L 9.421875 0 
z
M 9.421875 75.984375 
L 18.40625 75.984375 
L 18.40625 64.59375 
L 9.421875 64.59375 
z
" id="DejaVuSans-105"/>
      <path d="M 54.890625 33.015625 
L 54.890625 0 
L 45.90625 0 
L 45.90625 32.71875 
Q 45.90625 40.484375 42.875 44.328125 
Q 39.84375 48.1875 33.796875 48.1875 
Q 26.515625 48.1875 22.3125 43.546875 
Q 18.109375 38.921875 18.109375 30.90625 
L 18.109375 0 
L 9.078125 0 
L 9.078125 54.6875 
L 18.109375 54.6875 
L 18.109375 46.1875 
Q 21.34375 51.125 25.703125 53.5625 
Q 30.078125 56 35.796875 56 
Q 45.21875 56 50.046875 50.171875 
Q 54.890625 44.34375 54.890625 33.015625 
z
" id="DejaVuSans-110"/>
      <path d="M 45.40625 27.984375 
Q 45.40625 37.75 41.375 43.109375 
Q 37.359375 48.484375 30.078125 48.484375 
Q 22.859375 48.484375 18.828125 43.109375 
Q 14.796875 37.75 14.796875 27.984375 
Q 14.796875 18.265625 18.828125 12.890625 
Q 22.859375 7.515625 30.078125 7.515625 
Q 37.359375 7.515625 41.375 12.890625 
Q 45.40625 18.265625 45.40625 27.984375 
z
M 54.390625 6.78125 
Q 54.390625 -7.171875 48.1875 -13.984375 
Q 42 -20.796875 29.203125 -20.796875 
Q 24.46875 -20.796875 20.265625 -20.09375 
Q 16.0625 -19.390625 12.109375 -17.921875 
L 12.109375 -9.1875 
Q 16.0625 -11.328125 19.921875 -12.34375 
Q 23.78125 -13.375 27.78125 -13.375 
Q 36.625 -13.375 41.015625 -8.765625 
Q 45.40625 -4.15625 45.40625 5.171875 
L 45.40625 9.625 
Q 42.625 4.78125 38.28125 2.390625 
Q 33.9375 0 27.875 0 
Q 17.828125 0 11.671875 7.65625 
Q 5.515625 15.328125 5.515625 27.984375 
Q 5.515625 40.671875 11.671875 48.328125 
Q 17.828125 56 27.875 56 
Q 33.9375 56 38.28125 53.609375 
Q 42.625 51.21875 45.40625 46.390625 
L 45.40625 54.6875 
L 54.390625 54.6875 
z
" id="DejaVuSans-103"/>
     </defs>
     <g transform="translate(400.976562 31.276563)scale(0.1 -0.1)">
      <use xlink:href="#DejaVuSans-84"/>
      <use x="60.865234" xlink:href="#DejaVuSans-114"/>
      <use x="101.978516" xlink:href="#DejaVuSans-97"/>
      <use x="163.257812" xlink:href="#DejaVuSans-99"/>
      <use x="218.238281" xlink:href="#DejaVuSans-107"/>
      <use x="276.148438" xlink:href="#DejaVuSans-105"/>
      <use x="303.931641" xlink:href="#DejaVuSans-110"/>
      <use x="367.310547" xlink:href="#DejaVuSans-103"/>
     </g>
    </g>
   </g>
  </g>
 </g>
 <defs>
  <clipPath id="p27fa53471c">
   <rect height="345.6" width="460.8" x="0" y="0"/>
  </clipPath>
 </defs>
</svg>
