<?xml version="1.0" encoding="utf-8" standalone="no"?>
<!DOCTYPE svg PUBLIC "-//W3C//DTD SVG 1.1//EN"
  "http://www.w3.org/Graphics/SVG/1.1/DTD/svg11.dtd">
<!-- Created with matplotlib (https://matplotlib.org/) -->
<svg height="345.6pt" version="1.1" viewBox="0 0 460.8 345.6" width="460.8pt" xmlns="http://www.w3.org/2000/svg" xmlns:xlink="http://www.w3.org/1999/xlink">
 <defs>
  <style type="text/css">
*{stroke-linecap:butt;stroke-linejoin:round;}
  </style>
 </defs>
 <g id="figure_1">
  <g id="patch_1">
   <path d="M 0 345.6 
L 460.8 345.6 
L 460.8 0 
L 0 0 
z
" style="fill:#ffffff;"/>
  </g>
  <g id="axes_1">
   <g id="patch_2">
    <path d="M 0 345.6 
L 460.8 345.6 
L 460.8 0 
L 0 0 
z
" style="fill:#ffffff;"/>
   </g>
   <g id="matplotlib.axis_1">
    <g id="xtick_1">
     <g id="line2d_1">
      <path clip-path="url(#paa974ebbfe)" d="M 0 345.6 
L 0 0 
" style="fill:none;stroke:#b0b0b0;stroke-linecap:square;stroke-width:0.8;"/>
     </g>
     <g id="line2d_2">
      <defs>
       <path d="M 0 0 
L 0 3.5 
" id="mcbac1e4487" style="stroke:#000000;stroke-width:0.8;"/>
      </defs>
      <g>
       <use style="stroke:#000000;stroke-width:0.8;" x="0" xlink:href="#mcbac1e4487" y="345.6"/>
      </g>
     </g>
     <g id="text_1">
      <!-- 0.0 -->
      <defs>
       <path d="M 31.78125 66.40625 
Q 24.171875 66.40625 20.328125 58.90625 
Q 16.5 51.421875 16.5 36.375 
Q 16.5 21.390625 20.328125 13.890625 
Q 24.171875 6.390625 31.78125 6.390625 
Q 39.453125 6.390625 43.28125 13.890625 
Q 47.125 21.390625 47.125 36.375 
Q 47.125 51.421875 43.28125 58.90625 
Q 39.453125 66.40625 31.78125 66.40625 
z
M 31.78125 74.21875 
Q 44.046875 74.21875 50.515625 64.515625 
Q 56.984375 54.828125 56.984375 36.375 
Q 56.984375 17.96875 50.515625 8.265625 
Q 44.046875 -1.421875 31.78125 -1.421875 
Q 19.53125 -1.421875 13.0625 8.265625 
Q 6.59375 17.96875 6.59375 36.375 
Q 6.59375 54.828125 13.0625 64.515625 
Q 19.53125 74.21875 31.78125 74.21875 
z
" id="DejaVuSans-48"/>
       <path d="M 10.6875 12.40625 
L 21 12.40625 
L 21 0 
L 10.6875 0 
z
" id="DejaVuSans-46"/>
      </defs>
      <g transform="translate(-7.951563 360.198437)scale(0.1 -0.1)">
       <use xlink:href="#DejaVuSans-48"/>
       <use x="63.623047" xlink:href="#DejaVuSans-46"/>
       <use x="95.410156" xlink:href="#DejaVuSans-48"/>
      </g>
     </g>
    </g>
    <g id="xtick_2">
     <g id="line2d_3">
      <path clip-path="url(#paa974ebbfe)" d="M 51.2 345.6 
L 51.2 0 
" style="fill:none;stroke:#b0b0b0;stroke-linecap:square;stroke-width:0.8;"/>
     </g>
     <g id="line2d_4">
      <g>
       <use style="stroke:#000000;stroke-width:0.8;" x="51.2" xlink:href="#mcbac1e4487" y="345.6"/>
      </g>
     </g>
     <g id="text_2">
      <!-- 2.5 -->
      <defs>
       <path d="M 19.1875 8.296875 
L 53.609375 8.296875 
L 53.609375 0 
L 7.328125 0 
L 7.328125 8.296875 
Q 12.9375 14.109375 22.625 23.890625 
Q 32.328125 33.6875 34.8125 36.53125 
Q 39.546875 41.84375 41.421875 45.53125 
Q 43.3125 49.21875 43.3125 52.78125 
Q 43.3125 58.59375 39.234375 62.25 
Q 35.15625 65.921875 28.609375 65.921875 
Q 23.96875 65.921875 18.8125 64.3125 
Q 13.671875 62.703125 7.8125 59.421875 
L 7.8125 69.390625 
Q 13.765625 71.78125 18.9375 73 
Q 24.125 74.21875 28.421875 74.21875 
Q 39.75 74.21875 46.484375 68.546875 
Q 53.21875 62.890625 53.21875 53.421875 
Q 53.21875 48.921875 51.53125 44.890625 
Q 49.859375 40.875 45.40625 35.40625 
Q 44.1875 33.984375 37.640625 27.21875 
Q 31.109375 20.453125 19.1875 8.296875 
z
" id="DejaVuSans-50"/>
       <path d="M 10.796875 72.90625 
L 49.515625 72.90625 
L 49.515625 64.59375 
L 19.828125 64.59375 
L 19.828125 46.734375 
Q 21.96875 47.46875 24.109375 47.828125 
Q 26.265625 48.1875 28.421875 48.1875 
Q 40.625 48.1875 47.75 41.5 
Q 54.890625 34.8125 54.890625 23.390625 
Q 54.890625 11.625 47.5625 5.09375 
Q 40.234375 -1.421875 26.90625 -1.421875 
Q 22.3125 -1.421875 17.546875 -0.640625 
Q 12.796875 0.140625 7.71875 1.703125 
L 7.71875 11.625 
Q 12.109375 9.234375 16.796875 8.0625 
Q 21.484375 6.890625 26.703125 6.890625 
Q 35.15625 6.890625 40.078125 11.328125 
Q 45.015625 15.765625 45.015625 23.390625 
Q 45.015625 31 40.078125 35.4375 
Q 35.15625 39.890625 26.703125 39.890625 
Q 22.75 39.890625 18.8125 39.015625 
Q 14.890625 38.140625 10.796875 36.28125 
z
" id="DejaVuSans-53"/>
      </defs>
      <g transform="translate(43.248438 360.198437)scale(0.1 -0.1)">
       <use xlink:href="#DejaVuSans-50"/>
       <use x="63.623047" xlink:href="#DejaVuSans-46"/>
       <use x="95.410156" xlink:href="#DejaVuSans-53"/>
      </g>
     </g>
    </g>
    <g id="xtick_3">
     <g id="line2d_5">
      <path clip-path="url(#paa974ebbfe)" d="M 102.4 345.6 
L 102.4 0 
" style="fill:none;stroke:#b0b0b0;stroke-linecap:square;stroke-width:0.8;"/>
     </g>
     <g id="line2d_6">
      <g>
       <use style="stroke:#000000;stroke-width:0.8;" x="102.4" xlink:href="#mcbac1e4487" y="345.6"/>
      </g>
     </g>
     <g id="text_3">
      <!-- 5.0 -->
      <g transform="translate(94.448438 360.198437)scale(0.1 -0.1)">
       <use xlink:href="#DejaVuSans-53"/>
       <use x="63.623047" xlink:href="#DejaVuSans-46"/>
       <use x="95.410156" xlink:href="#DejaVuSans-48"/>
      </g>
     </g>
    </g>
    <g id="xtick_4">
     <g id="line2d_7">
      <path clip-path="url(#paa974ebbfe)" d="M 153.6 345.6 
L 153.6 0 
" style="fill:none;stroke:#b0b0b0;stroke-linecap:square;stroke-width:0.8;"/>
     </g>
     <g id="line2d_8">
      <g>
       <use style="stroke:#000000;stroke-width:0.8;" x="153.6" xlink:href="#mcbac1e4487" y="345.6"/>
      </g>
     </g>
     <g id="text_4">
      <!-- 7.5 -->
      <defs>
       <path d="M 8.203125 72.90625 
L 55.078125 72.90625 
L 55.078125 68.703125 
L 28.609375 0 
L 18.3125 0 
L 43.21875 64.59375 
L 8.203125 64.59375 
z
" id="DejaVuSans-55"/>
      </defs>
      <g transform="translate(145.648438 360.198437)scale(0.1 -0.1)">
       <use xlink:href="#DejaVuSans-55"/>
       <use x="63.623047" xlink:href="#DejaVuSans-46"/>
       <use x="95.410156" xlink:href="#DejaVuSans-53"/>
      </g>
     </g>
    </g>
    <g id="xtick_5">
     <g id="line2d_9">
      <path clip-path="url(#paa974ebbfe)" d="M 204.8 345.6 
L 204.8 0 
" style="fill:none;stroke:#b0b0b0;stroke-linecap:square;stroke-width:0.8;"/>
     </g>
     <g id="line2d_10">
      <g>
       <use style="stroke:#000000;stroke-width:0.8;" x="204.8" xlink:href="#mcbac1e4487" y="345.6"/>
      </g>
     </g>
     <g id="text_5">
      <!-- 10.0 -->
      <defs>
       <path d="M 12.40625 8.296875 
L 28.515625 8.296875 
L 28.515625 63.921875 
L 10.984375 60.40625 
L 10.984375 69.390625 
L 28.421875 72.90625 
L 38.28125 72.90625 
L 38.28125 8.296875 
L 54.390625 8.296875 
L 54.390625 0 
L 12.40625 0 
z
" id="DejaVuSans-49"/>
      </defs>
      <g transform="translate(193.667188 360.198437)scale(0.1 -0.1)">
       <use xlink:href="#DejaVuSans-49"/>
       <use x="63.623047" xlink:href="#DejaVuSans-48"/>
       <use x="127.246094" xlink:href="#DejaVuSans-46"/>
       <use x="159.033203" xlink:href="#DejaVuSans-48"/>
      </g>
     </g>
    </g>
    <g id="xtick_6">
     <g id="line2d_11">
      <path clip-path="url(#paa974ebbfe)" d="M 256 345.6 
L 256 0 
" style="fill:none;stroke:#b0b0b0;stroke-linecap:square;stroke-width:0.8;"/>
     </g>
     <g id="line2d_12">
      <g>
       <use style="stroke:#000000;stroke-width:0.8;" x="256" xlink:href="#mcbac1e4487" y="345.6"/>
      </g>
     </g>
     <g id="text_6">
      <!-- 12.5 -->
      <g transform="translate(244.867188 360.198437)scale(0.1 -0.1)">
       <use xlink:href="#DejaVuSans-49"/>
       <use x="63.623047" xlink:href="#DejaVuSans-50"/>
       <use x="127.246094" xlink:href="#DejaVuSans-46"/>
       <use x="159.033203" xlink:href="#DejaVuSans-53"/>
      </g>
     </g>
    </g>
    <g id="xtick_7">
     <g id="line2d_13">
      <path clip-path="url(#paa974ebbfe)" d="M 307.2 345.6 
L 307.2 0 
" style="fill:none;stroke:#b0b0b0;stroke-linecap:square;stroke-width:0.8;"/>
     </g>
     <g id="line2d_14">
      <g>
       <use style="stroke:#000000;stroke-width:0.8;" x="307.2" xlink:href="#mcbac1e4487" y="345.6"/>
      </g>
     </g>
     <g id="text_7">
      <!-- 15.0 -->
      <g transform="translate(296.067187 360.198437)scale(0.1 -0.1)">
       <use xlink:href="#DejaVuSans-49"/>
       <use x="63.623047" xlink:href="#DejaVuSans-53"/>
       <use x="127.246094" xlink:href="#DejaVuSans-46"/>
       <use x="159.033203" xlink:href="#DejaVuSans-48"/>
      </g>
     </g>
    </g>
    <g id="xtick_8">
     <g id="line2d_15">
      <path clip-path="url(#paa974ebbfe)" d="M 358.4 345.6 
L 358.4 0 
" style="fill:none;stroke:#b0b0b0;stroke-linecap:square;stroke-width:0.8;"/>
     </g>
     <g id="line2d_16">
      <g>
       <use style="stroke:#000000;stroke-width:0.8;" x="358.4" xlink:href="#mcbac1e4487" y="345.6"/>
      </g>
     </g>
     <g id="text_8">
      <!-- 17.5 -->
      <g transform="translate(347.267188 360.198437)scale(0.1 -0.1)">
       <use xlink:href="#DejaVuSans-49"/>
       <use x="63.623047" xlink:href="#DejaVuSans-55"/>
       <use x="127.246094" xlink:href="#DejaVuSans-46"/>
       <use x="159.033203" xlink:href="#DejaVuSans-53"/>
      </g>
     </g>
    </g>
    <g id="xtick_9">
     <g id="line2d_17">
      <path clip-path="url(#paa974ebbfe)" d="M 409.6 345.6 
L 409.6 0 
" style="fill:none;stroke:#b0b0b0;stroke-linecap:square;stroke-width:0.8;"/>
     </g>
     <g id="line2d_18">
      <g>
       <use style="stroke:#000000;stroke-width:0.8;" x="409.6" xlink:href="#mcbac1e4487" y="345.6"/>
      </g>
     </g>
     <g id="text_9">
      <!-- 20.0 -->
      <g transform="translate(398.467188 360.198437)scale(0.1 -0.1)">
       <use xlink:href="#DejaVuSans-50"/>
       <use x="63.623047" xlink:href="#DejaVuSans-48"/>
       <use x="127.246094" xlink:href="#DejaVuSans-46"/>
       <use x="159.033203" xlink:href="#DejaVuSans-48"/>
      </g>
     </g>
    </g>
    <g id="xtick_10">
     <g id="line2d_19">
      <path clip-path="url(#paa974ebbfe)" d="M 460.8 345.6 
L 460.8 0 
" style="fill:none;stroke:#b0b0b0;stroke-linecap:square;stroke-width:0.8;"/>
     </g>
     <g id="line2d_20">
      <g>
       <use style="stroke:#000000;stroke-width:0.8;" x="460.8" xlink:href="#mcbac1e4487" y="345.6"/>
      </g>
     </g>
     <g id="text_10">
      <!-- 22.5 -->
      <g transform="translate(449.667188 360.198437)scale(0.1 -0.1)">
       <use xlink:href="#DejaVuSans-50"/>
       <use x="63.623047" xlink:href="#DejaVuSans-50"/>
       <use x="127.246094" xlink:href="#DejaVuSans-46"/>
       <use x="159.033203" xlink:href="#DejaVuSans-53"/>
      </g>
     </g>
    </g>
    <g id="text_11">
     <!-- x[m] -->
     <defs>
      <path d="M 54.890625 54.6875 
L 35.109375 28.078125 
L 55.90625 0 
L 45.3125 0 
L 29.390625 21.484375 
L 13.484375 0 
L 2.875 0 
L 24.125 28.609375 
L 4.6875 54.6875 
L 15.28125 54.6875 
L 29.78125 35.203125 
L 44.28125 54.6875 
z
" id="DejaVuSans-120"/>
      <path d="M 8.59375 75.984375 
L 29.296875 75.984375 
L 29.296875 69 
L 17.578125 69 
L 17.578125 -6.203125 
L 29.296875 -6.203125 
L 29.296875 -13.1875 
L 8.59375 -13.1875 
z
" id="DejaVuSans-91"/>
      <path d="M 52 44.1875 
Q 55.375 50.25 60.0625 53.125 
Q 64.75 56 71.09375 56 
Q 79.640625 56 84.28125 50.015625 
Q 88.921875 44.046875 88.921875 33.015625 
L 88.921875 0 
L 79.890625 0 
L 79.890625 32.71875 
Q 79.890625 40.578125 77.09375 44.375 
Q 74.3125 48.1875 68.609375 48.1875 
Q 61.625 48.1875 57.5625 43.546875 
Q 53.515625 38.921875 53.515625 30.90625 
L 53.515625 0 
L 44.484375 0 
L 44.484375 32.71875 
Q 44.484375 40.625 41.703125 44.40625 
Q 38.921875 48.1875 33.109375 48.1875 
Q 26.21875 48.1875 22.15625 43.53125 
Q 18.109375 38.875 18.109375 30.90625 
L 18.109375 0 
L 9.078125 0 
L 9.078125 54.6875 
L 18.109375 54.6875 
L 18.109375 46.1875 
Q 21.1875 51.21875 25.484375 53.609375 
Q 29.78125 56 35.6875 56 
Q 41.65625 56 45.828125 52.96875 
Q 50 49.953125 52 44.1875 
z
" id="DejaVuSans-109"/>
      <path d="M 30.421875 75.984375 
L 30.421875 -13.1875 
L 9.71875 -13.1875 
L 9.71875 -6.203125 
L 21.390625 -6.203125 
L 21.390625 69 
L 9.71875 69 
L 9.71875 75.984375 
z
" id="DejaVuSans-93"/>
     </defs>
     <g transform="translate(218.66875 373.876562)scale(0.1 -0.1)">
      <use xlink:href="#DejaVuSans-120"/>
      <use x="59.179688" xlink:href="#DejaVuSans-91"/>
      <use x="98.193359" xlink:href="#DejaVuSans-109"/>
      <use x="195.605469" xlink:href="#DejaVuSans-93"/>
     </g>
    </g>
   </g>
   <g id="matplotlib.axis_2">
    <g id="ytick_1">
     <g id="line2d_21">
      <path clip-path="url(#paa974ebbfe)" d="M 0 300.8 
L 460.8 300.8 
" style="fill:none;stroke:#b0b0b0;stroke-linecap:square;stroke-width:0.8;"/>
     </g>
     <g id="line2d_22">
      <defs>
       <path d="M 0 0 
L -3.5 0 
" id="m01f21ee9c4" style="stroke:#000000;stroke-width:0.8;"/>
      </defs>
      <g>
       <use style="stroke:#000000;stroke-width:0.8;" x="0" xlink:href="#m01f21ee9c4" y="300.8"/>
      </g>
     </g>
     <g id="text_12">
      <!-- 0.0 -->
      <g transform="translate(-22.903125 304.599219)scale(0.1 -0.1)">
       <use xlink:href="#DejaVuSans-48"/>
       <use x="63.623047" xlink:href="#DejaVuSans-46"/>
       <use x="95.410156" xlink:href="#DejaVuSans-48"/>
      </g>
     </g>
    </g>
    <g id="ytick_2">
     <g id="line2d_23">
      <path clip-path="url(#paa974ebbfe)" d="M 0 249.6 
L 460.8 249.6 
" style="fill:none;stroke:#b0b0b0;stroke-linecap:square;stroke-width:0.8;"/>
     </g>
     <g id="line2d_24">
      <g>
       <use style="stroke:#000000;stroke-width:0.8;" x="0" xlink:href="#m01f21ee9c4" y="249.6"/>
      </g>
     </g>
     <g id="text_13">
      <!-- 2.5 -->
      <g transform="translate(-22.903125 253.399219)scale(0.1 -0.1)">
       <use xlink:href="#DejaVuSans-50"/>
       <use x="63.623047" xlink:href="#DejaVuSans-46"/>
       <use x="95.410156" xlink:href="#DejaVuSans-53"/>
      </g>
     </g>
    </g>
    <g id="ytick_3">
     <g id="line2d_25">
      <path clip-path="url(#paa974ebbfe)" d="M 0 198.4 
L 460.8 198.4 
" style="fill:none;stroke:#b0b0b0;stroke-linecap:square;stroke-width:0.8;"/>
     </g>
     <g id="line2d_26">
      <g>
       <use style="stroke:#000000;stroke-width:0.8;" x="0" xlink:href="#m01f21ee9c4" y="198.4"/>
      </g>
     </g>
     <g id="text_14">
      <!-- 5.0 -->
      <g transform="translate(-22.903125 202.199219)scale(0.1 -0.1)">
       <use xlink:href="#DejaVuSans-53"/>
       <use x="63.623047" xlink:href="#DejaVuSans-46"/>
       <use x="95.410156" xlink:href="#DejaVuSans-48"/>
      </g>
     </g>
    </g>
    <g id="ytick_4">
     <g id="line2d_27">
      <path clip-path="url(#paa974ebbfe)" d="M 0 147.2 
L 460.8 147.2 
" style="fill:none;stroke:#b0b0b0;stroke-linecap:square;stroke-width:0.8;"/>
     </g>
     <g id="line2d_28">
      <g>
       <use style="stroke:#000000;stroke-width:0.8;" x="0" xlink:href="#m01f21ee9c4" y="147.2"/>
      </g>
     </g>
     <g id="text_15">
      <!-- 7.5 -->
      <g transform="translate(-22.903125 150.999219)scale(0.1 -0.1)">
       <use xlink:href="#DejaVuSans-55"/>
       <use x="63.623047" xlink:href="#DejaVuSans-46"/>
       <use x="95.410156" xlink:href="#DejaVuSans-53"/>
      </g>
     </g>
    </g>
    <g id="ytick_5">
     <g id="line2d_29">
      <path clip-path="url(#paa974ebbfe)" d="M 0 96 
L 460.8 96 
" style="fill:none;stroke:#b0b0b0;stroke-linecap:square;stroke-width:0.8;"/>
     </g>
     <g id="line2d_30">
      <g>
       <use style="stroke:#000000;stroke-width:0.8;" x="0" xlink:href="#m01f21ee9c4" y="96"/>
      </g>
     </g>
     <g id="text_16">
      <!-- 10.0 -->
      <g transform="translate(-29.265625 99.799219)scale(0.1 -0.1)">
       <use xlink:href="#DejaVuSans-49"/>
       <use x="63.623047" xlink:href="#DejaVuSans-48"/>
       <use x="127.246094" xlink:href="#DejaVuSans-46"/>
       <use x="159.033203" xlink:href="#DejaVuSans-48"/>
      </g>
     </g>
    </g>
    <g id="ytick_6">
     <g id="line2d_31">
      <path clip-path="url(#paa974ebbfe)" d="M 0 44.8 
L 460.8 44.8 
" style="fill:none;stroke:#b0b0b0;stroke-linecap:square;stroke-width:0.8;"/>
     </g>
     <g id="line2d_32">
      <g>
       <use style="stroke:#000000;stroke-width:0.8;" x="0" xlink:href="#m01f21ee9c4" y="44.8"/>
      </g>
     </g>
     <g id="text_17">
      <!-- 12.5 -->
      <g transform="translate(-29.265625 48.599219)scale(0.1 -0.1)">
       <use xlink:href="#DejaVuSans-49"/>
       <use x="63.623047" xlink:href="#DejaVuSans-50"/>
       <use x="127.246094" xlink:href="#DejaVuSans-46"/>
       <use x="159.033203" xlink:href="#DejaVuSans-53"/>
      </g>
     </g>
    </g>
    <g id="text_18">
     <!-- y[m] -->
     <defs>
      <path d="M 32.171875 -5.078125 
Q 28.375 -14.84375 24.75 -17.8125 
Q 21.140625 -20.796875 15.09375 -20.796875 
L 7.90625 -20.796875 
L 7.90625 -13.28125 
L 13.1875 -13.28125 
Q 16.890625 -13.28125 18.9375 -11.515625 
Q 21 -9.765625 23.484375 -3.21875 
L 25.09375 0.875 
L 2.984375 54.6875 
L 12.5 54.6875 
L 29.59375 11.921875 
L 46.6875 54.6875 
L 56.203125 54.6875 
z
" id="DejaVuSans-121"/>
     </defs>
     <g transform="translate(-35.345312 184.53125)rotate(-90)scale(0.1 -0.1)">
      <use xlink:href="#DejaVuSans-121"/>
      <use x="59.179688" xlink:href="#DejaVuSans-91"/>
      <use x="98.193359" xlink:href="#DejaVuSans-109"/>
      <use x="195.605469" xlink:href="#DejaVuSans-93"/>
     </g>
    </g>
   </g>
   <g id="line2d_33">
    <path clip-path="url(#paa974ebbfe)" d="M 366.43989 171.574018 
L 382.507733 191.488028 
L 390.701851 201.989908 
L 399.345172 213.463788 
L 405.580555 221.6001 
L 410.095092 227.155829 
L 414.120899 231.772656 
L 422.301259 240.915745 
L 424.820051 244.182897 
L 426.552568 246.774727 
L 428.030728 249.491067 
L 428.807175 251.367585 
L 429.372734 253.294173 
L 429.738203 255.269488 
L 430.007813 258.322004 
L 430.081831 262.554746 
L 429.978867 266.896227 
L 429.768708 269.024392 
L 429.386787 271.073047 
L 428.783622 273.003851 
L 427.909731 274.778461 
L 426.7169 276.35874 
L 425.205718 277.714522 
L 423.439841 278.825941 
L 421.487106 279.673811 
L 419.415349 280.238949 
L 417.290649 280.504719 
L 415.165641 280.47395 
L 413.086765 280.158454 
L 411.100423 279.570089 
L 409.253022 278.720711 
L 407.585624 277.623899 
L 406.09402 276.307799 
L 404.751197 274.8079 
L 403.529966 273.159743 
L 401.866629 270.487278 
L 395.066985 258.630434 
L 391.633897 253.586807 
L 386.846128 246.982599 
L 384.882053 244.614164 
L 383.395397 243.195465 
L 381.718331 241.969807 
L 379.882833 240.972392 
L 377.936617 240.234066 
L 375.927399 239.785675 
L 373.897541 239.639713 
L 366.665881 239.654212 
L 364.633739 239.301461 
L 362.705016 238.647659 
L 360.928117 237.644243 
L 359.323393 236.336217 
L 357.903012 234.795883 
L 356.679141 233.09555 
L 355.660087 231.302444 
L 354.824812 229.44516 
L 353.840953 226.562602 
L 352.849776 222.595273 
L 351.220128 215.553195 
L 350.259919 212.590594 
L 349.447513 210.662839 
L 348.473872 208.80792 
L 347.329991 207.070493 
L 346.00698 205.495367 
L 344.495948 204.127351 
L 342.795394 203.002458 
L 340.937885 202.116153 
L 338.965802 201.452216 
L 336.921527 200.994428 
L 334.847415 200.726541 
L 331.741735 200.612896 
L 323.553595 200.631383 
L 321.533607 200.389402 
L 319.528146 199.932548 
L 317.567109 199.234634 
L 315.703332 198.295599 
L 313.990373 197.116197 
L 312.481783 195.697184 
L 311.222196 194.049655 
L 310.22582 192.219956 
L 309.500387 190.26194 
L 309.053629 188.22946 
L 308.890445 186.174021 
L 308.985466 184.122018 
L 309.294987 182.084636 
L 310.065285 179.079981 
L 311.073921 176.158749 
L 313.952008 168.493512 
L 314.744442 165.526822 
L 315.090204 163.487629 
L 315.273454 161.412929 
L 315.288342 159.323787 
L 315.129017 157.24127 
L 314.789628 155.186446 
L 314.264327 153.180382 
L 313.547262 151.244143 
L 312.63712 149.395809 
L 311.549512 147.642307 
L 310.303994 145.987966 
L 308.920121 144.437116 
L 307.417449 142.994084 
L 304.983472 141.041168 
L 302.386984 139.351358 
L 299.658929 137.913476 
L 296.819663 136.708555 
L 293.889526 135.717615 
L 290.888862 134.92168 
L 287.838006 134.301833 
L 284.756464 133.852405 
L 281.661867 133.59744 
L 278.571591 133.565024 
L 275.503015 133.783246 
L 272.473514 134.280192 
L 269.501642 135.076679 
L 266.611446 136.159503 
L 263.828578 137.505521 
L 261.178606 139.091565 
L 258.677603 140.892007 
L 256.323761 142.87658 
L 254.113288 145.014503 
L 251.373211 148.051747 
L 248.810486 151.242833 
L 244.529268 157.006211 
L 240.809597 161.90804 
L 233.184115 171.542417 
L 227.179127 179.821196 
L 222.124164 186.355169 
L 220.676583 187.785482 
L 219.064586 189.010677 
L 217.279394 190.001077 
L 215.359653 190.769229 
L 213.347122 191.330449 
L 211.283558 191.700054 
L 209.209436 191.892294 
L 207.146546 191.905903 
L 205.102561 191.727896 
L 203.084807 191.344997 
L 201.101405 190.744453 
L 199.177529 189.92472 
L 197.354771 188.895049 
L 195.675395 187.665131 
L 194.18166 186.244655 
L 192.914224 184.643873 
L 191.876022 182.886281 
L 191.031784 181.008786 
L 190.048234 178.049769 
L 189.075858 174.022535 
L 185.903674 159.019877 
L 183.774537 150.057561 
L 181.393901 139.061321 
L 178.969127 126.975909 
L 178.383566 122.915281 
L 178.209885 119.853469 
L 178.2703 117.803829 
L 178.628251 114.734048 
L 179.267182 111.703152 
L 180.142091 108.748632 
L 181.208352 105.901809 
L 182.857941 102.206511 
L 186.015783 95.533815 
L 186.554485 93.536656 
L 186.62627 92.532228 
L 186.524984 91.527237 
L 186.226473 90.533328 
L 185.735354 89.600479 
L 185.063789 88.788712 
L 184.224018 88.157941 
L 183.242948 87.748425 
L 182.178944 87.558262 
L 181.094441 87.580099 
L 180.051872 87.806583 
L 179.113474 88.230293 
L 178.314152 88.834615 
L 177.633712 89.584389 
L 176.522233 91.370763 
L 172.697496 98.726324 
L 164.763192 113.037918 
L 162.605075 116.514361 
L 160.833902 119.026111 
L 158.884231 121.420978 
L 156.728675 123.650181 
L 155.175546 125.007032 
L 153.529162 126.233472 
L 151.789196 127.306372 
L 149.958679 128.210776 
L 148.051968 128.959311 
L 145.085665 129.830186 
L 142.042109 130.454062 
L 137.951136 131.000284 
L 133.854643 131.27728 
L 129.75569 131.31998 
L 125.657106 131.163111 
L 120.538708 130.739291 
L 115.433676 130.112983 
L 110.370588 129.248438 
L 106.375412 128.334786 
L 102.450121 127.182021 
L 98.612825 125.758656 
L 94.87642 124.06898 
L 91.252157 122.12859 
L 87.751418 119.952993 
L 84.396101 117.55057 
L 81.998914 115.597692 
L 79.723476 113.513006 
L 77.587333 111.294418 
L 75.608027 108.939833 
L 73.797181 106.451528 
L 71.609502 102.970554 
L 69.140985 98.465767 
L 65.060614 90.323896 
L 62.055064 83.907636 
L 59.587033 78.110104 
L 57.106795 72.035126 
L 55.668377 69.181866 
L 54.566104 67.457305 
L 53.313585 65.930528 
L 51.880322 64.649274 
L 50.23835 63.658525 
L 48.399892 62.959613 
L 46.409302 62.518969 
L 44.311833 62.302046 
L 42.152737 62.274298 
L 38.897534 62.51181 
L 35.751767 62.987553 
L 32.761088 63.699663 
L 30.836818 64.346786 
L 28.955661 65.161472 
L 27.111692 66.166916 
L 25.345139 67.364873 
L 23.722046 68.745104 
L 22.30874 70.297239 
L 21.17155 72.010908 
L 20.376729 73.875712 
L 19.963759 75.870166 
L 19.905745 77.945312 
L 20.165683 80.048003 
L 20.706568 82.125096 
L 21.491396 84.123444 
L 22.483189 85.990438 
L 23.646523 87.70431 
L 24.948347 89.290339 
L 27.088883 91.49364 
L 30.894739 94.930725 
L 35.602578 98.889321 
L 40.441458 102.681353 
L 45.40121 106.309778 
L 51.326697 110.340876 
L 57.385157 114.171171 
L 63.557917 117.826707 
L 69.831582 121.319448 
L 76.209149 124.617092 
L 81.763003 127.257409 
L 87.401599 129.698673 
L 93.128132 131.917209 
L 99.898909 134.268842 
L 126.106998 143.071293 
L 139.590742 147.942099 
L 153.978626 153.390648 
L 168.38315 158.801343 
L 177.084654 161.828547 
L 183.904161 163.985335 
L 189.797003 165.652572 
L 194.773634 166.836509 
L 198.836304 167.563356 
L 201.926583 167.908339 
L 205.012625 167.979907 
L 207.047165 167.827682 
L 209.049237 167.482524 
L 211.010537 166.938375 
L 212.927503 166.21628 
L 214.796859 165.338943 
L 217.504463 163.781526 
L 220.086527 162.002525 
L 222.534736 160.074729 
L 225.617432 157.341188 
L 229.263875 153.746792 
L 251.577736 130.895088 
L 255.247141 127.445434 
L 258.146497 125.021328 
L 271.683856 114.573741 
L 272.644722 114.079442 
L 273.534929 113.775615 
L 274.335775 113.701227 
L 275.028563 113.895247 
L 275.594621 114.396591 
L 276.035115 115.207704 
L 277.631647 119.51787 
L 278.16211 120.41628 
L 278.782683 121.091761 
L 279.510602 121.470366 
L 280.348828 121.524918 
L 281.27441 121.313142 
L 283.284879 120.357394 
L 287.279716 118.061782 
L 290.048514 116.777816 
L 292.804802 115.778505 
L 295.706665 114.960311 
L 298.750102 114.346172 
L 301.866305 114.009587 
L 303.950137 113.975756 
L 306.015215 114.119826 
L 308.041502 114.462653 
L 310.018876 115.001306 
L 311.947535 115.7081 
L 314.750667 117.020466 
L 317.448009 118.549194 
L 320.042123 120.224952 
L 323.345639 122.657289 
L 326.478406 125.288007 
L 329.449303 128.08705 
L 332.278966 131.027241 
L 335.657177 134.861599 
L 339.545352 139.629598 
L 353.617922 157.320963 
L 359.029527 163.472011 
L 365.934089 171.025444 
L 365.934089 171.025444 
" style="fill:none;stroke:#0000ff;stroke-linecap:square;stroke-width:1.5;"/>
   </g>
   <g id="line2d_34">
    <path clip-path="url(#paa974ebbfe)" d="M 366.43989 171.574018 
L 383.933832 193.233811 
L 397.88847 211.397351 
L 403.409714 218.669813 
L 408.004309 224.487768 
L 412.526924 229.873161 
L 416.694759 234.456692 
L 421.492692 239.825215 
L 424.02854 242.966669 
L 426.328327 246.229107 
L 427.760178 248.723298 
L 428.969009 251.426926 
L 429.567898 253.487904 
L 429.978171 255.821898 
L 430.213922 258.884003 
L 430.260934 264.022062 
L 430.128596 267.608408 
L 429.771858 270.420189 
L 429.414223 271.981504 
L 428.6356 274.104181 
L 427.902668 275.452208 
L 427.193537 276.420169 
L 425.853985 277.774961 
L 424.820806 278.569202 
L 423.235401 279.509476 
L 421.615962 280.226072 
L 420.298159 280.626549 
L 418.650392 280.984228 
L 416.391429 281.177203 
L 414.272737 281.077859 
L 412.003461 280.645945 
L 410.114255 280.009355 
L 408.074803 278.977082 
L 406.200689 277.609137 
L 404.609487 276.053523 
L 403.058216 274.141037 
L 401.946322 272.530333 
L 400.373129 269.882057 
L 395.65287 261.384429 
L 394.081701 258.876293 
L 391.389881 254.911973 
L 384.271493 245.260972 
L 382.619651 243.662713 
L 381.398374 242.728445 
L 379.781846 241.780061 
L 377.817755 240.96302 
L 375.686313 240.443405 
L 374.048269 240.278531 
L 371.629527 240.307211 
L 368.440524 240.388337 
L 366.757775 240.315662 
L 364.868815 240.048594 
L 362.630147 239.405909 
L 360.892316 238.545756 
L 359.126319 237.25024 
L 357.892357 236.064676 
L 356.71473 234.684815 
L 355.972177 233.646257 
L 354.554336 231.18549 
L 353.647779 229.100207 
L 352.779339 226.4331 
L 352.07369 223.697819 
L 350.230524 215.721343 
L 349.106532 212.313329 
L 347.934907 209.759949 
L 347.113708 208.345688 
L 345.725769 206.450378 
L 344.516922 205.208037 
L 343.462052 204.343114 
L 342.197941 203.531935 
L 340.745428 202.797557 
L 338.863077 202.117307 
L 336.420903 201.550531 
L 334.696623 201.317802 
L 331.67788 201.193507 
L 322.570327 201.127848 
L 320.141721 200.731546 
L 318.605743 200.313142 
L 316.563337 199.535465 
L 314.560877 198.440115 
L 312.929707 197.232725 
L 311.672755 195.991427 
L 310.690675 194.786157 
L 309.788914 193.323328 
L 309.08932 191.873597 
L 308.533519 190.293702 
L 308.12019 188.650909 
L 307.847057 186.298253 
L 307.925626 183.702298 
L 308.292265 181.364276 
L 308.868372 179.045492 
L 309.922669 175.829104 
L 311.645718 171.428205 
L 312.660214 168.707922 
L 313.540876 165.773353 
L 313.981988 163.538535 
L 314.219377 161.008991 
L 314.22474 159.026481 
L 314.03154 156.786573 
L 313.779814 155.233121 
L 313.147223 152.849152 
L 312.265408 150.666765 
L 310.98974 148.380939 
L 309.88513 146.825761 
L 307.94432 144.609019 
L 306.241561 143.022243 
L 303.861624 141.177106 
L 301.38448 139.612482 
L 299.172518 138.447228 
L 296.176585 137.172023 
L 293.665253 136.298188 
L 290.890598 135.532255 
L 286.864608 134.704667 
L 282.729869 134.17943 
L 279.200869 134.036627 
L 276.16611 134.174628 
L 273.068722 134.601445 
L 270.734605 135.119247 
L 268.546005 135.78918 
L 266.477435 136.580925 
L 263.587033 137.97398 
L 261.628144 139.120519 
L 258.956277 140.983046 
L 256.65124 142.869445 
L 253.988495 145.431659 
L 251.759927 147.891854 
L 248.933512 151.37352 
L 239.97822 163.235487 
L 234.31256 170.261578 
L 226.754953 180.690625 
L 221.572948 187.297887 
L 220.337874 188.439468 
L 218.868865 189.518969 
L 217.004232 190.526595 
L 215.17968 191.240762 
L 212.92684 191.864907 
L 210.610111 192.25463 
L 208.765259 192.394307 
L 206.994541 192.40517 
L 204.659345 192.21632 
L 202.428938 191.781957 
L 200.67235 191.247154 
L 198.520556 190.326441 
L 197.187898 189.589431 
L 195.342052 188.337663 
L 193.761609 186.930019 
L 192.38742 185.295809 
L 191.17928 183.367806 
L 190.147234 181.150599 
L 189.278104 178.655795 
L 188.33502 174.984544 
L 185.182577 159.890025 
L 183.723128 153.849937 
L 182.075347 146.634946 
L 177.722675 125.214284 
L 177.268851 121.316286 
L 177.214274 118.621246 
L 177.292844 117.035438 
L 177.670122 114.139272 
L 178.187512 111.618309 
L 178.690711 109.719112 
L 179.739945 106.562113 
L 181.000259 103.492466 
L 184.078885 97.163522 
L 185.241052 94.498926 
L 185.565269 93.249922 
L 185.62701 92.135946 
L 185.526928 91.230482 
L 185.184276 90.31748 
L 184.84475 89.746853 
L 184.418911 89.185625 
L 183.714063 88.635157 
L 182.892295 88.246102 
L 181.864617 88.05211 
L 181.005271 88.061786 
L 179.720421 88.349269 
L 179.150801 88.633368 
L 178.380414 89.158753 
L 177.881059 89.671089 
L 176.871611 91.132375 
L 175.632984 93.556209 
L 173.169934 98.241675 
L 165.503514 112.112882 
L 163.004092 116.260284 
L 160.616703 119.672893 
L 159.156822 121.485686 
L 157.148359 123.637558 
L 155.635513 125.010395 
L 153.062847 126.957172 
L 151.2689 128.015249 
L 148.97265 129.063524 
L 146.10756 130.041934 
L 142.724183 130.829674 
L 139.615123 131.336213 
L 135.828082 131.717076 
L 130.363974 131.860806 
L 124.912411 131.652888 
L 119.401952 131.159212 
L 114.231787 130.508662 
L 109.165396 129.594525 
L 103.834928 128.239588 
L 100.056188 126.987077 
L 97.603501 126.022379 
L 94.99419 124.856667 
L 91.487083 123.052148 
L 89.267579 121.753385 
L 85.687331 119.409025 
L 82.288241 116.822219 
L 78.586809 113.457097 
L 76.273156 110.989588 
L 73.550468 107.51198 
L 72.249265 105.605659 
L 70.433752 102.637626 
L 68.084321 98.288906 
L 62.663104 87.331882 
L 59.943703 81.259439 
L 58.171651 76.955289 
L 55.945884 71.599004 
L 54.466563 68.772434 
L 53.248232 67.052527 
L 51.994433 65.708368 
L 50.599936 64.641693 
L 49.390006 63.995784 
L 47.661462 63.380533 
L 45.99603 63.033542 
L 44.416167 62.836495 
L 41.771495 62.782157 
L 39.385603 62.938882 
L 35.492571 63.487606 
L 32.594368 64.181512 
L 30.817043 64.770845 
L 28.465964 65.807044 
L 26.582846 66.878341 
L 24.572058 68.352867 
L 23.326813 69.493013 
L 21.947209 71.121305 
L 21.002132 72.670065 
L 20.481656 74.057389 
L 20.103478 75.698625 
L 19.987787 77.411444 
L 20.157716 79.374397 
L 20.383566 80.71569 
L 21.083929 83.032226 
L 21.833276 84.708393 
L 23.042956 86.800298 
L 24.3142 88.51185 
L 25.946879 90.325539 
L 28.697316 92.960263 
L 31.912877 95.775874 
L 36.069333 99.242803 
L 40.994196 103.068554 
L 46.495048 107.062995 
L 51.685239 110.557097 
L 56.931612 113.873852 
L 66.551632 119.502054 
L 77.686919 125.314348 
L 84.255426 128.345963 
L 90.69604 130.993994 
L 95.796213 132.850816 
L 104.419728 135.736793 
L 120.083476 140.946726 
L 142.232604 148.862643 
L 157.015633 154.492927 
L 167.913717 158.580051 
L 182.188558 163.404586 
L 187.884198 165.077233 
L 194.421986 166.696575 
L 198.51132 167.460984 
L 202.270882 167.898185 
L 205.341075 167.948737 
L 207.701784 167.742491 
L 209.685985 167.348626 
L 212.21767 166.549939 
L 214.845068 165.407099 
L 217.046764 164.164215 
L 219.822537 162.302611 
L 222.868062 159.933349 
L 225.998351 157.122748 
L 229.095995 154.06529 
L 237.224724 145.581989 
L 251.28219 131.283547 
L 254.895499 127.863307 
L 257.79738 125.39167 
L 261.725702 122.381989 
L 265.690692 119.256133 
L 271.014124 115.050112 
L 272.487068 114.232777 
L 273.748215 113.781215 
L 274.466613 113.820467 
L 275.068768 114.101444 
L 275.458498 114.510401 
L 275.871421 115.266312 
L 276.453854 116.90934 
L 277.211766 119.025241 
L 278.076366 120.660644 
L 278.678636 121.361593 
L 279.28255 121.732527 
L 280.633762 122.030743 
L 281.297031 121.892069 
L 282.966274 121.222026 
L 284.428437 120.444158 
L 288.06317 118.364943 
L 290.572616 117.208563 
L 292.696104 116.410582 
L 294.71158 115.785187 
L 297.945015 115.010901 
L 300.074596 114.655537 
L 301.995797 114.462002 
L 303.858914 114.408597 
L 306.440953 114.57246 
L 308.112551 114.855055 
L 309.814387 115.285937 
L 312.501364 116.265748 
L 314.081716 116.994064 
L 316.531741 118.284837 
L 318.910878 119.720137 
L 321.941495 121.819246 
L 324.822133 124.071152 
L 327.896541 126.786309 
L 332.006077 130.953317 
L 335.297124 134.648006 
L 339.174483 139.375763 
L 346.351262 148.61684 
L 351.156793 154.610827 
L 358.522926 163.136493 
L 365.62976 170.915697 
L 366.146092 171.476443 
L 366.146092 171.476443 
" style="fill:none;stroke:#008000;stroke-dasharray:5.55,2.4;stroke-dashoffset:0;stroke-width:1.5;"/>
   </g>
   <g id="patch_3">
    <path d="M 0 345.6 
L 0 0 
" style="fill:none;stroke:#000000;stroke-linecap:square;stroke-linejoin:miter;stroke-width:0.8;"/>
   </g>
   <g id="patch_4">
    <path d="M 460.8 345.6 
L 460.8 0 
" style="fill:none;stroke:#000000;stroke-linecap:square;stroke-linejoin:miter;stroke-width:0.8;"/>
   </g>
   <g id="patch_5">
    <path d="M 0 345.6 
L 460.8 345.6 
" style="fill:none;stroke:#000000;stroke-linecap:square;stroke-linejoin:miter;stroke-width:0.8;"/>
   </g>
   <g id="patch_6">
    <path d="M 0 0 
L 460.8 0 
" style="fill:none;stroke:#000000;stroke-linecap:square;stroke-linejoin:miter;stroke-width:0.8;"/>
   </g>
   <g id="legend_1">
    <g id="patch_7">
     <path d="M 370.976562 37.35625 
L 453.8 37.35625 
Q 455.8 37.35625 455.8 35.35625 
L 455.8 7 
Q 455.8 5 453.8 5 
L 370.976562 5 
Q 368.976562 5 368.976562 7 
L 368.976562 35.35625 
Q 368.976562 37.35625 370.976562 37.35625 
z
" style="fill:#ffffff;opacity:0.8;stroke:#cccccc;stroke-linejoin:miter;"/>
    </g>
    <g id="line2d_35">
     <path d="M 372.976562 13.098437 
L 392.976562 13.098437 
" style="fill:none;stroke:#0000ff;stroke-linecap:square;stroke-width:1.5;"/>
    </g>
    <g id="line2d_36"/>
    <g id="text_19">
     <!-- Trajectory -->
     <defs>
      <path d="M -0.296875 72.90625 
L 61.375 72.90625 
L 61.375 64.59375 
L 35.5 64.59375 
L 35.5 0 
L 25.59375 0 
L 25.59375 64.59375 
L -0.296875 64.59375 
z
" id="DejaVuSans-84"/>
      <path d="M 41.109375 46.296875 
Q 39.59375 47.171875 37.8125 47.578125 
Q 36.03125 48 33.890625 48 
Q 26.265625 48 22.1875 43.046875 
Q 18.109375 38.09375 18.109375 28.8125 
L 18.109375 0 
L 9.078125 0 
L 9.078125 54.6875 
L 18.109375 54.6875 
L 18.109375 46.1875 
Q 20.953125 51.171875 25.484375 53.578125 
Q 30.03125 56 36.53125 56 
Q 37.453125 56 38.578125 55.875 
Q 39.703125 55.765625 41.0625 55.515625 
z
" id="DejaVuSans-114"/>
      <path d="M 34.28125 27.484375 
Q 23.390625 27.484375 19.1875 25 
Q 14.984375 22.515625 14.984375 16.5 
Q 14.984375 11.71875 18.140625 8.90625 
Q 21.296875 6.109375 26.703125 6.109375 
Q 34.1875 6.109375 38.703125 11.40625 
Q 43.21875 16.703125 43.21875 25.484375 
L 43.21875 27.484375 
z
M 52.203125 31.203125 
L 52.203125 0 
L 43.21875 0 
L 43.21875 8.296875 
Q 40.140625 3.328125 35.546875 0.953125 
Q 30.953125 -1.421875 24.3125 -1.421875 
Q 15.921875 -1.421875 10.953125 3.296875 
Q 6 8.015625 6 15.921875 
Q 6 25.140625 12.171875 29.828125 
Q 18.359375 34.515625 30.609375 34.515625 
L 43.21875 34.515625 
L 43.21875 35.40625 
Q 43.21875 41.609375 39.140625 45 
Q 35.0625 48.390625 27.6875 48.390625 
Q 23 48.390625 18.546875 47.265625 
Q 14.109375 46.140625 10.015625 43.890625 
L 10.015625 52.203125 
Q 14.9375 54.109375 19.578125 55.046875 
Q 24.21875 56 28.609375 56 
Q 40.484375 56 46.34375 49.84375 
Q 52.203125 43.703125 52.203125 31.203125 
z
" id="DejaVuSans-97"/>
      <path d="M 9.421875 54.6875 
L 18.40625 54.6875 
L 18.40625 -0.984375 
Q 18.40625 -11.421875 14.421875 -16.109375 
Q 10.453125 -20.796875 1.609375 -20.796875 
L -1.8125 -20.796875 
L -1.8125 -13.1875 
L 0.59375 -13.1875 
Q 5.71875 -13.1875 7.5625 -10.8125 
Q 9.421875 -8.453125 9.421875 -0.984375 
z
M 9.421875 75.984375 
L 18.40625 75.984375 
L 18.40625 64.59375 
L 9.421875 64.59375 
z
" id="DejaVuSans-106"/>
      <path d="M 56.203125 29.59375 
L 56.203125 25.203125 
L 14.890625 25.203125 
Q 15.484375 15.921875 20.484375 11.0625 
Q 25.484375 6.203125 34.421875 6.203125 
Q 39.59375 6.203125 44.453125 7.46875 
Q 49.3125 8.734375 54.109375 11.28125 
L 54.109375 2.78125 
Q 49.265625 0.734375 44.1875 -0.34375 
Q 39.109375 -1.421875 33.890625 -1.421875 
Q 20.796875 -1.421875 13.15625 6.1875 
Q 5.515625 13.8125 5.515625 26.8125 
Q 5.515625 40.234375 12.765625 48.109375 
Q 20.015625 56 32.328125 56 
Q 43.359375 56 49.78125 48.890625 
Q 56.203125 41.796875 56.203125 29.59375 
z
M 47.21875 32.234375 
Q 47.125 39.59375 43.09375 43.984375 
Q 39.0625 48.390625 32.421875 48.390625 
Q 24.90625 48.390625 20.390625 44.140625 
Q 15.875 39.890625 15.1875 32.171875 
z
" id="DejaVuSans-101"/>
      <path d="M 48.78125 52.59375 
L 48.78125 44.1875 
Q 44.96875 46.296875 41.140625 47.34375 
Q 37.3125 48.390625 33.40625 48.390625 
Q 24.65625 48.390625 19.8125 42.84375 
Q 14.984375 37.3125 14.984375 27.296875 
Q 14.984375 17.28125 19.8125 11.734375 
Q 24.65625 6.203125 33.40625 6.203125 
Q 37.3125 6.203125 41.140625 7.25 
Q 44.96875 8.296875 48.78125 10.40625 
L 48.78125 2.09375 
Q 45.015625 0.34375 40.984375 -0.53125 
Q 36.96875 -1.421875 32.421875 -1.421875 
Q 20.0625 -1.421875 12.78125 6.34375 
Q 5.515625 14.109375 5.515625 27.296875 
Q 5.515625 40.671875 12.859375 48.328125 
Q 20.21875 56 33.015625 56 
Q 37.15625 56 41.109375 55.140625 
Q 45.0625 54.296875 48.78125 52.59375 
z
" id="DejaVuSans-99"/>
      <path d="M 18.3125 70.21875 
L 18.3125 54.6875 
L 36.8125 54.6875 
L 36.8125 47.703125 
L 18.3125 47.703125 
L 18.3125 18.015625 
Q 18.3125 11.328125 20.140625 9.421875 
Q 21.96875 7.515625 27.59375 7.515625 
L 36.8125 7.515625 
L 36.8125 0 
L 27.59375 0 
Q 17.1875 0 13.234375 3.875 
Q 9.28125 7.765625 9.28125 18.015625 
L 9.28125 47.703125 
L 2.6875 47.703125 
L 2.6875 54.6875 
L 9.28125 54.6875 
L 9.28125 70.21875 
z
" id="DejaVuSans-116"/>
      <path d="M 30.609375 48.390625 
Q 23.390625 48.390625 19.1875 42.75 
Q 14.984375 37.109375 14.984375 27.296875 
Q 14.984375 17.484375 19.15625 11.84375 
Q 23.34375 6.203125 30.609375 6.203125 
Q 37.796875 6.203125 41.984375 11.859375 
Q 46.1875 17.53125 46.1875 27.296875 
Q 46.1875 37.015625 41.984375 42.703125 
Q 37.796875 48.390625 30.609375 48.390625 
z
M 30.609375 56 
Q 42.328125 56 49.015625 48.375 
Q 55.71875 40.765625 55.71875 27.296875 
Q 55.71875 13.875 49.015625 6.21875 
Q 42.328125 -1.421875 30.609375 -1.421875 
Q 18.84375 -1.421875 12.171875 6.21875 
Q 5.515625 13.875 5.515625 27.296875 
Q 5.515625 40.765625 12.171875 48.375 
Q 18.84375 56 30.609375 56 
z
" id="DejaVuSans-111"/>
     </defs>
     <g transform="translate(400.976562 16.598437)scale(0.1 -0.1)">
      <use xlink:href="#DejaVuSans-84"/>
      <use x="60.865234" xlink:href="#DejaVuSans-114"/>
      <use x="101.978516" xlink:href="#DejaVuSans-97"/>
      <use x="163.257812" xlink:href="#DejaVuSans-106"/>
      <use x="191.041016" xlink:href="#DejaVuSans-101"/>
      <use x="252.564453" xlink:href="#DejaVuSans-99"/>
      <use x="307.544922" xlink:href="#DejaVuSans-116"/>
      <use x="346.753906" xlink:href="#DejaVuSans-111"/>
      <use x="407.935547" xlink:href="#DejaVuSans-114"/>
      <use x="449.048828" xlink:href="#DejaVuSans-121"/>
     </g>
    </g>
    <g id="line2d_37">
     <path d="M 372.976562 27.776563 
L 392.976562 27.776563 
" style="fill:none;stroke:#008000;stroke-dasharray:5.55,2.4;stroke-dashoffset:0;stroke-width:1.5;"/>
    </g>
    <g id="line2d_38"/>
    <g id="text_20">
     <!-- Tracking -->
     <defs>
      <path d="M 9.078125 75.984375 
L 18.109375 75.984375 
L 18.109375 31.109375 
L 44.921875 54.6875 
L 56.390625 54.6875 
L 27.390625 29.109375 
L 57.625 0 
L 45.90625 0 
L 18.109375 26.703125 
L 18.109375 0 
L 9.078125 0 
z
" id="DejaVuSans-107"/>
      <path d="M 9.421875 54.6875 
L 18.40625 54.6875 
L 18.40625 0 
L 9.421875 0 
z
M 9.421875 75.984375 
L 18.40625 75.984375 
L 18.40625 64.59375 
L 9.421875 64.59375 
z
" id="DejaVuSans-105"/>
      <path d="M 54.890625 33.015625 
L 54.890625 0 
L 45.90625 0 
L 45.90625 32.71875 
Q 45.90625 40.484375 42.875 44.328125 
Q 39.84375 48.1875 33.796875 48.1875 
Q 26.515625 48.1875 22.3125 43.546875 
Q 18.109375 38.921875 18.109375 30.90625 
L 18.109375 0 
L 9.078125 0 
L 9.078125 54.6875 
L 18.109375 54.6875 
L 18.109375 46.1875 
Q 21.34375 51.125 25.703125 53.5625 
Q 30.078125 56 35.796875 56 
Q 45.21875 56 50.046875 50.171875 
Q 54.890625 44.34375 54.890625 33.015625 
z
" id="DejaVuSans-110"/>
      <path d="M 45.40625 27.984375 
Q 45.40625 37.75 41.375 43.109375 
Q 37.359375 48.484375 30.078125 48.484375 
Q 22.859375 48.484375 18.828125 43.109375 
Q 14.796875 37.75 14.796875 27.984375 
Q 14.796875 18.265625 18.828125 12.890625 
Q 22.859375 7.515625 30.078125 7.515625 
Q 37.359375 7.515625 41.375 12.890625 
Q 45.40625 18.265625 45.40625 27.984375 
z
M 54.390625 6.78125 
Q 54.390625 -7.171875 48.1875 -13.984375 
Q 42 -20.796875 29.203125 -20.796875 
Q 24.46875 -20.796875 20.265625 -20.09375 
Q 16.0625 -19.390625 12.109375 -17.921875 
L 12.109375 -9.1875 
Q 16.0625 -11.328125 19.921875 -12.34375 
Q 23.78125 -13.375 27.78125 -13.375 
Q 36.625 -13.375 41.015625 -8.765625 
Q 45.40625 -4.15625 45.40625 5.171875 
L 45.40625 9.625 
Q 42.625 4.78125 38.28125 2.390625 
Q 33.9375 0 27.875 0 
Q 17.828125 0 11.671875 7.65625 
Q 5.515625 15.328125 5.515625 27.984375 
Q 5.515625 40.671875 11.671875 48.328125 
Q 17.828125 56 27.875 56 
Q 33.9375 56 38.28125 53.609375 
Q 42.625 51.21875 45.40625 46.390625 
L 45.40625 54.6875 
L 54.390625 54.6875 
z
" id="DejaVuSans-103"/>
     </defs>
     <g transform="translate(400.976562 31.276563)scale(0.1 -0.1)">
      <use xlink:href="#DejaVuSans-84"/>
      <use x="60.865234" xlink:href="#DejaVuSans-114"/>
      <use x="101.978516" xlink:href="#DejaVuSans-97"/>
      <use x="163.257812" xlink:href="#DejaVuSans-99"/>
      <use x="218.238281" xlink:href="#DejaVuSans-107"/>
      <use x="276.148438" xlink:href="#DejaVuSans-105"/>
      <use x="303.931641" xlink:href="#DejaVuSans-110"/>
      <use x="367.310547" xlink:href="#DejaVuSans-103"/>
     </g>
    </g>
   </g>
  </g>
 </g>
 <defs>
  <clipPath id="paa974ebbfe">
   <rect height="345.6" width="460.8" x="0" y="0"/>
  </clipPath>
 </defs>
</svg>
